<svg width="16" height="15" viewBox="0 0 16 15" fill="none" xmlns="http://www.w3.org/2000/svg">
<path d="M1.59834 2.26511C1.25011 2.61333 0.973884 3.02673 0.785425 3.48171C0.596967 3.93668 0.499969 4.42432 0.499969 4.91678C0.499969 5.40924 0.596967 5.89688 0.785425 6.35185C0.973884 6.80683 1.25011 7.22023 1.59834 7.56845L8 13.9701L14.4017 7.56845C15.1049 6.86518 15.5 5.91135 15.5 4.91678C15.5 3.92221 15.1049 2.96838 14.4017 2.26511C13.6984 1.56185 12.7446 1.16676 11.75 1.16676C10.7554 1.16676 9.8016 1.56185 9.09834 2.26511L8 3.36345L6.90167 2.26511C6.55345 1.91689 6.14005 1.64066 5.68508 1.4522C5.2301 1.26375 4.74246 1.16675 4.25 1.16675C3.75754 1.16675 3.2699 1.26375 2.81493 1.4522C2.35995 1.64066 1.94656 1.91689 1.59834 2.26511V2.26511Z" stroke="#111827" stroke-linecap="round" stroke-linejoin="round"/>
</svg>
