<svg width="80" height="80" viewBox="0 0 80 80" fill="none" xmlns="http://www.w3.org/2000/svg"><path d="M79.5123 77.1556L69.024 66.6673H70.0005C73.6773 66.6673 76.6673 63.6757 76.6673 60.0005V23.3335C76.6673 19.6583 73.6774 16.6667 70.0005 16.6667H62.0708C61.1934 16.6667 60.334 16.3119 59.714 15.6902L52.6437 8.61979C51.4033 7.37947 49.6846 6.66665 47.93 6.66665H32.0705C30.316 6.66665 28.5972 7.37963 27.3569 8.61979L20.2865 15.6902C19.8879 16.0897 19.3786 16.3288 18.8412 16.4844L2.845 0.488324C2.1939 -0.162775 1.13921 -0.162775 0.488265 0.488324C-0.162677 1.13942 -0.162833 2.19412 0.488265 2.84506L14.3099 16.6667H10.0001C6.32331 16.6667 3.33329 19.6583 3.33329 23.3335V60.0005C3.33329 63.6757 6.32315 66.6673 10.0001 66.6673H64.3103L77.1554 79.5124C77.4809 79.8378 77.9075 80.0006 78.3339 80.0006C78.7603 80.0006 79.1867 79.8378 79.5123 79.5124C80.1634 78.8613 80.1634 77.8066 79.5123 77.1556ZM10.0001 63.3338C8.16254 63.3338 6.66675 61.8396 6.66675 60.0005V23.3335C6.66675 21.4944 8.16254 20.0002 10.0001 20.0002H17.6434L27.1552 29.512C24.8039 32.3858 23.3336 36.0066 23.3336 40.0003C23.3336 49.1899 30.8108 56.6672 40.0004 56.6672C43.9942 56.6672 47.615 55.1969 50.4888 52.8456L60.9772 63.334H10.0001V63.3338ZM48.133 50.49C45.8749 52.2453 43.0752 53.3339 40.0003 53.3339C32.6484 53.3339 26.6669 47.354 26.6669 40.0005C26.6669 36.9252 27.7554 34.1255 29.5105 31.8675L48.133 50.49ZM31.8676 29.5107C34.1257 27.7554 36.9254 26.6668 40.0003 26.6668C47.3522 26.6668 53.3337 32.6467 53.3337 40.0002C53.3337 43.0755 52.2452 45.8752 50.4901 48.1332L31.8676 29.5107ZM52.8454 50.4887C55.1967 47.6149 56.667 43.9941 56.667 40.0003C56.667 30.8107 49.1897 23.3335 40.0001 23.3335C36.0064 23.3335 32.3855 24.8038 29.5118 27.1551L21.3705 19.0138C21.8277 18.7382 22.2633 18.4271 22.6433 18.0469L29.7136 10.9765C30.3338 10.3548 31.1932 9.99996 32.0704 9.99996H47.9299C48.8072 9.99996 49.6666 10.3548 50.2866 10.9765L57.357 18.0469C58.5973 19.2872 60.3161 20 62.0706 20H70.0005C71.838 20 73.3338 21.4943 73.3338 23.3333V60.0005C73.3338 61.8397 71.838 63.3338 70.0005 63.3338H65.6906L52.8454 50.4887Z" fill="#E9EDF6"/><path d="M66.6673 30.0008C68.5082 30.0008 70.0006 28.5085 70.0006 26.6675C70.0006 24.8266 68.5082 23.3342 66.6673 23.3342C64.8264 23.3342 63.334 24.8266 63.334 26.6675C63.334 28.5085 64.8264 30.0008 66.6673 30.0008Z" fill="#E9EDF6"/></svg>
