<svg width="6" height="8" viewBox="0 0 6 8" fill="none" xmlns="http://www.w3.org/2000/svg">
<path fill-rule="evenodd" clip-rule="evenodd" d="M0.834327 7.76566C0.68435 7.61563 0.600098 7.41219 0.600098 7.20006C0.600098 6.98793 0.68435 6.78448 0.834327 6.63446L3.46873 4.00006L0.834327 1.36566C0.6886 1.21478 0.607965 1.01269 0.609787 0.802936C0.61161 0.593179 0.695745 0.392529 0.844072 0.244203C0.992398 0.095876 1.19305 0.0117407 1.40281 0.00991794C1.61256 0.0080952 1.81464 0.088731 1.96553 0.234457L5.16553 3.43446C5.3155 3.58448 5.39976 3.78793 5.39976 4.00006C5.39976 4.21219 5.3155 4.41564 5.16553 4.56566L1.96553 7.76566C1.8155 7.91563 1.61206 7.99989 1.39993 7.99989C1.1878 7.99989 0.984349 7.91563 0.834327 7.76566Z" fill="#4B5563"/>
</svg>
