<svg width="150" height="129" viewBox="0 0 150 129" fill="none" xmlns="http://www.w3.org/2000/svg">
<path d="M10.9837 11.6501C7.50141 15.1323 4.73914 19.2663 2.85456 23.816C0.96998 28.3657 0 33.2421 0 38.1667C0 43.0913 0.96998 47.9677 2.85456 52.5175C4.73914 57.0672 7.50141 61.2012 10.9837 64.6834L75.0003 128.7L139.017 64.6834C146.05 57.6507 150.001 48.1124 150.001 38.1667C150.001 28.2211 146.05 18.6827 139.017 11.6501C131.984 4.61741 122.446 0.666508 112.5 0.666508C102.555 0.666508 93.0163 4.61741 85.9836 11.6501L75.0003 22.6334L64.017 11.6501C60.5348 8.16782 56.4008 5.40555 51.8511 3.52097C47.3013 1.63639 42.4249 0.666412 37.5003 0.666412C32.5757 0.666412 27.6993 1.63639 23.1496 3.52097C18.5998 5.40555 14.4659 8.16782 10.9837 11.6501Z" fill="#E5E7EB"/>
</svg>
