<svg width="200" height="200" viewBox="0 0 200 200" fill="none" xmlns="http://www.w3.org/2000/svg">
<path d="M20.03 58.84L100 98.82L179.97 58.84C179.674 53.7444 177.441 48.9549 173.728 45.4523C170.016 41.9497 165.104 39.9991 160 40H40C34.8958 39.9991 29.9845 41.9497 26.2718 45.4523C22.5591 48.9549 20.326 53.7444 20.03 58.84Z" fill="#E5E7EB"/>
<path d="M180 81.18L100 121.18L20 81.18V140C20 145.304 22.1071 150.391 25.8579 154.142C29.6086 157.893 34.6957 160 40 160H160C165.304 160 170.391 157.893 174.142 154.142C177.893 150.391 180 145.304 180 140V81.18Z" fill="#E5E7EB"/>
</svg>
