<svg width="12" height="8" viewBox="0 0 9 6" fill="none" xmlns="http://www.w3.org/2000/svg">
    <path
        fill-rule="evenodd"
        clip-rule="evenodd"
        d="M0.234229 0.83441C0.384251 0.684433 0.587698 0.600181 0.799829 0.600181C1.01196 0.600181 1.21541 0.684433 1.36543 0.83441L3.99983 3.46881L6.63423 0.83441C6.70803 0.758002 6.7963 0.697056 6.89391 0.655129C6.99151 0.613202 7.09648 0.591133 7.20271 0.59021C7.30893 0.589287 7.41427 0.609528 7.51259 0.649752C7.61091 0.689977 7.70023 0.74938 7.77534 0.824494C7.85046 0.899608 7.90986 0.98893 7.95009 1.08725C7.99031 1.18556 8.01055 1.29091 8.00963 1.39713C8.00871 1.50335 7.98664 1.60833 7.94471 1.70593C7.90278 1.80354 7.84184 1.89181 7.76543 1.96561L4.56543 5.16561C4.41541 5.31559 4.21196 5.39984 3.99983 5.39984C3.7877 5.39984 3.58425 5.31559 3.43423 5.16561L0.234229 1.96561C0.0842524 1.81559 0 1.61214 0 1.40001C0 1.18788 0.0842524 0.984432 0.234229 0.83441Z"
        fill="#1E40AF"
    />
</svg>
