<svg width="80" height="80" viewBox="0 0 80 80" fill="none" xmlns="http://www.w3.org/2000/svg">
    <path d="M44.2222 56.6667V60.8889C44.2222 64.2483 42.8877 67.4701 40.5122 69.8456C38.1368 72.221 34.915 73.5555 31.5556 73.5555H14.6667C11.3073 73.5555 8.08544 72.221 5.70998 69.8456C3.33452 67.4701 2 64.2483 2 60.8889V18.6667C2 15.3073 3.33452 12.0854 5.70998 9.70998C8.08544 7.33452 11.3073 6 14.6667 6H31.5556C34.915 6 38.1368 7.33452 40.5122 9.70998C42.8877 12.0854 44.2222 15.3073 44.2222 18.6667V22.8889M61.1111 56.6667L78 39.7778L61.1111 56.6667ZM78 39.7778L61.1111 22.8889L78 39.7778ZM78 39.7778H18.8889H78Z" stroke="#1E40AF" stroke-width="2.4" stroke-linecap="round" stroke-linejoin="round"/>
</svg>
