<svg width="160" height="120" viewBox="0 0 160 120" fill="none" xmlns="http://www.w3.org/2000/svg">
<path d="M0.0300002 18.84L80 58.82L159.97 18.84C159.674 13.7444 157.441 8.95488 153.728 5.45227C150.016 1.94965 145.104 -0.000935847 140 3.36834e-07H20C14.8958 -0.000935847 9.98447 1.94965 6.27178 5.45227C2.55908 8.95488 0.326041 13.7444 0.0300002 18.84Z" fill="#E5E7EB"/>
<path d="M160 41.18L80 81.18L0 41.18V100C0 105.304 2.10714 110.391 5.85786 114.142C9.60859 117.893 14.6957 120 20 120H140C145.304 120 150.391 117.893 154.142 114.142C157.893 110.391 160 105.304 160 100V41.18Z" fill="#E5E7EB"/>
</svg>
