<svg width="15" height="10" viewBox="0 0 15 10" fill="none" xmlns="http://www.w3.org/2000/svg">
<path fill-rule="evenodd" clip-rule="evenodd" d="M0.409901 1.21018C0.67244 0.94772 1.02847 0.800278 1.3997 0.800278C1.77093 0.800278 2.12696 0.94772 2.3895 1.21018L6.9997 5.82038L11.6099 1.21018C11.739 1.07647 11.8935 0.96981 12.0643 0.896437C12.2351 0.823065 12.4188 0.784444 12.6047 0.782829C12.7906 0.781213 12.975 0.816635 13.147 0.887029C13.3191 0.957422 13.4754 1.06138 13.6069 1.19283C13.7383 1.32428 13.8423 1.48059 13.9127 1.65264C13.983 1.8247 14.0185 2.00905 14.0169 2.19494C14.0152 2.38083 13.9766 2.56454 13.9032 2.73535C13.8299 2.90615 13.7232 3.06063 13.5895 3.18978L7.9895 8.78978C7.72696 9.05224 7.37093 9.19968 6.9997 9.19968C6.62847 9.19968 6.27244 9.05224 6.0099 8.78978L0.409901 3.18978C0.147442 2.92724 0 2.57121 0 2.19998C0 1.82875 0.147442 1.47272 0.409901 1.21018Z" fill="#1E40AF"/>
</svg>
