<svg width="16" height="16" viewBox="0 0 16 16" fill="none" xmlns="http://www.w3.org/2000/svg">
<path fill-rule="evenodd" clip-rule="evenodd" d="M8 4C8.21217 4 8.41566 4.08429 8.56569 4.23431C8.71571 4.38434 8.8 4.58783 8.8 4.8V7.2H11.2C11.4122 7.2 11.6157 7.28429 11.7657 7.43431C11.9157 7.58434 12 7.78783 12 8C12 8.21217 11.9157 8.41566 11.7657 8.56569C11.6157 8.71571 11.4122 8.8 11.2 8.8H8.8V11.2C8.8 11.4122 8.71571 11.6157 8.56569 11.7657C8.41566 11.9157 8.21217 12 8 12C7.78783 12 7.58434 11.9157 7.43431 11.7657C7.28429 11.6157 7.2 11.4122 7.2 11.2V8.8H4.8C4.58783 8.8 4.38434 8.71571 4.23431 8.56569C4.08429 8.41566 4 8.21217 4 8C4 7.78783 4.08429 7.58434 4.23431 7.43431C4.38434 7.28429 4.58783 7.2 4.8 7.2H7.2V4.8C7.2 4.58783 7.28429 4.38434 7.43431 4.23431C7.58434 4.08429 7.78783 4 8 4Z" fill="white"/>
</svg>
