<?xml version="1.0" encoding="utf-8"?>
<!-- Generator: Adobe Illustrator 24.1.1, SVG Export Plug-In . SVG Version: 6.00 Build 0)  -->
<svg version="1.1" id="Layer_1" xmlns="http://www.w3.org/2000/svg" xmlns:xlink="http://www.w3.org/1999/xlink" x="0px" y="0px"
	 viewBox="0 0 265.27 80" style="enable-background:new 0 0 265.27 80;" xml:space="preserve">
<style type="text/css">
	.st0{clip-path:url(#SVGID_2_);fill:#EB9EA1;}
	.st1{clip-path:url(#SVGID_2_);fill:#EB9CA0;}
	.st2{clip-path:url(#SVGID_2_);fill:#EC9B9F;}
	.st3{clip-path:url(#SVGID_2_);fill:#EC9AA0;}
	.st4{clip-path:url(#SVGID_2_);fill:#EB999F;}
	.st5{clip-path:url(#SVGID_2_);fill:#EA979F;}
	.st6{clip-path:url(#SVGID_2_);fill:#EA979E;}
	.st7{clip-path:url(#SVGID_2_);fill:#EA969E;}
	.st8{clip-path:url(#SVGID_2_);fill:#EA959D;}
	.st9{clip-path:url(#SVGID_2_);fill:#EA949D;}
	.st10{clip-path:url(#SVGID_2_);fill:#EA939D;}
	.st11{clip-path:url(#SVGID_2_);fill:#E9929C;}
	.st12{clip-path:url(#SVGID_2_);fill:#EA919C;}
	.st13{clip-path:url(#SVGID_2_);fill:#EB909C;}
	.st14{clip-path:url(#SVGID_2_);fill:#EA8E9B;}
	.st15{clip-path:url(#SVGID_2_);fill:#EA8C99;}
	.st16{clip-path:url(#SVGID_2_);fill:#E98B99;}
	.st17{clip-path:url(#SVGID_2_);fill:#E98A99;}
	.st18{clip-path:url(#SVGID_2_);fill:#E98998;}
	.st19{clip-path:url(#SVGID_2_);fill:#E88898;}
	.st20{clip-path:url(#SVGID_2_);fill:#E88798;}
	.st21{clip-path:url(#SVGID_2_);fill:#E88697;}
	.st22{clip-path:url(#SVGID_2_);fill:#E88597;}
	.st23{clip-path:url(#SVGID_2_);fill:#E88497;}
	.st24{clip-path:url(#SVGID_2_);fill:#E88396;}
	.st25{clip-path:url(#SVGID_2_);fill:#E88296;}
	.st26{clip-path:url(#SVGID_2_);fill:#E88195;}
	.st27{clip-path:url(#SVGID_2_);fill:#E78095;}
	.st28{clip-path:url(#SVGID_2_);fill:#E77F95;}
	.st29{clip-path:url(#SVGID_2_);fill:#E77E94;}
	.st30{clip-path:url(#SVGID_2_);fill:#E77D94;}
	.st31{clip-path:url(#SVGID_2_);fill:#E67C94;}
	.st32{clip-path:url(#SVGID_2_);fill:#E67B93;}
	.st33{clip-path:url(#SVGID_2_);fill:#E67A93;}
	.st34{clip-path:url(#SVGID_2_);fill:#E67993;}
	.st35{clip-path:url(#SVGID_2_);fill:#E57892;}
	.st36{clip-path:url(#SVGID_2_);fill:#E57792;}
	.st37{clip-path:url(#SVGID_2_);fill:#E57691;}
	.st38{clip-path:url(#SVGID_2_);fill:#E67591;}
	.st39{clip-path:url(#SVGID_2_);fill:#E67491;}
	.st40{clip-path:url(#SVGID_2_);fill:#E67390;}
	.st41{clip-path:url(#SVGID_2_);fill:#E67190;}
	.st42{clip-path:url(#SVGID_2_);fill:#E66F8F;}
	.st43{clip-path:url(#SVGID_2_);fill:#E66E8E;}
	.st44{clip-path:url(#SVGID_2_);fill:#E56D8E;}
	.st45{clip-path:url(#SVGID_2_);fill:#E56C8E;}
	.st46{clip-path:url(#SVGID_2_);fill:#E56B8D;}
	.st47{clip-path:url(#SVGID_2_);fill:#E56A8E;}
	.st48{clip-path:url(#SVGID_2_);fill:#E4698D;}
	.st49{clip-path:url(#SVGID_2_);fill:#E4688C;}
	.st50{clip-path:url(#SVGID_2_);fill:#E4678C;}
	.st51{clip-path:url(#SVGID_2_);fill:#E3678C;}
	.st52{clip-path:url(#SVGID_2_);fill:#E3658B;}
	.st53{clip-path:url(#SVGID_2_);fill:#E4648B;}
	.st54{clip-path:url(#SVGID_2_);fill:#E4638B;}
	.st55{clip-path:url(#SVGID_2_);fill:#E4628A;}
	.st56{clip-path:url(#SVGID_2_);fill:#E4618A;}
	.st57{clip-path:url(#SVGID_2_);fill:#E46089;}
	.st58{clip-path:url(#SVGID_2_);fill:#E35E8A;}
	.st59{clip-path:url(#SVGID_2_);fill:#E45D88;}
	.st60{clip-path:url(#SVGID_2_);fill:#E45C88;}
	.st61{clip-path:url(#SVGID_2_);fill:#E35A89;}
	.st62{clip-path:url(#SVGID_2_);fill:#E45A88;}
	.st63{clip-path:url(#SVGID_2_);fill:#E35987;}
	.st64{clip-path:url(#SVGID_2_);fill:#E35887;}
	.st65{clip-path:url(#SVGID_2_);fill:#E35786;}
	.st66{clip-path:url(#SVGID_2_);fill:#E25686;}
	.st67{clip-path:url(#SVGID_2_);fill:#E25586;}
	.st68{clip-path:url(#SVGID_2_);fill:#E25485;}
	.st69{clip-path:url(#SVGID_2_);fill:#E25385;}
	.st70{clip-path:url(#SVGID_2_);fill:#E25285;}
	.st71{clip-path:url(#SVGID_2_);fill:#E25185;}
	.st72{clip-path:url(#SVGID_2_);fill:#E25085;}
	.st73{clip-path:url(#SVGID_2_);fill:#E24F84;}
	.st74{clip-path:url(#SVGID_2_);fill:#E14D83;}
	.st75{clip-path:url(#SVGID_2_);fill:#E14C82;}
	.st76{clip-path:url(#SVGID_2_);fill:#E14B82;}
	.st77{clip-path:url(#SVGID_2_);fill:#E24A82;}
	.st78{clip-path:url(#SVGID_2_);fill:#E24981;}
	.st79{clip-path:url(#SVGID_2_);fill:#E24881;}
	.st80{clip-path:url(#SVGID_2_);fill:#E24882;}
	.st81{clip-path:url(#SVGID_2_);fill:#E24780;}
	.st82{clip-path:url(#SVGID_2_);fill:#E14781;}
	.st83{clip-path:url(#SVGID_2_);fill:#E04680;}
	.st84{clip-path:url(#SVGID_2_);fill:#E04480;}
	.st85{clip-path:url(#SVGID_2_);fill:#E0437F;}
	.st86{clip-path:url(#SVGID_2_);fill:#E0427F;}
	.st87{clip-path:url(#SVGID_2_);fill:#E0417F;}
	.st88{clip-path:url(#SVGID_2_);fill:#E0407E;}
	.st89{clip-path:url(#SVGID_2_);fill:#E03F7E;}
	.st90{clip-path:url(#SVGID_2_);fill:#DF3E7E;}
	.st91{clip-path:url(#SVGID_2_);fill:#DF3C7D;}
	.st92{clip-path:url(#SVGID_2_);fill:#DF3B7D;}
	.st93{clip-path:url(#SVGID_2_);fill:#DF3B7C;}
	.st94{clip-path:url(#SVGID_2_);fill:#E0397C;}
	.st95{clip-path:url(#SVGID_2_);fill:#DF397C;}
	.st96{clip-path:url(#SVGID_2_);fill:#DF377B;}
	.st97{clip-path:url(#SVGID_2_);fill:#DF367B;}
	.st98{clip-path:url(#SVGID_2_);fill:#DF357A;}
	.st99{clip-path:url(#SVGID_2_);fill:#DE337A;}
	.st100{clip-path:url(#SVGID_2_);fill:#DE3279;}
	.st101{clip-path:url(#SVGID_2_);fill:#DE3079;}
	.st102{clip-path:url(#SVGID_2_);fill:#DE3078;}
	.st103{clip-path:url(#SVGID_2_);fill:#DE2F78;}
	.st104{clip-path:url(#SVGID_2_);fill:#DE2D78;}
	.st105{clip-path:url(#SVGID_2_);fill:#DD2C77;}
	.st106{clip-path:url(#SVGID_2_);fill:#DE2A77;}
	.st107{clip-path:url(#SVGID_2_);fill:#DE2876;}
	.st108{clip-path:url(#SVGID_2_);fill:#DD2775;}
	.st109{clip-path:url(#SVGID_2_);fill:#DE2775;}
	.st110{clip-path:url(#SVGID_2_);fill:#DD2575;}
	.st111{clip-path:url(#SVGID_2_);fill:#DD2374;}
	.st112{clip-path:url(#SVGID_2_);fill:#DC2374;}
	.st113{clip-path:url(#SVGID_2_);fill:#DC2173;}
	.st114{clip-path:url(#SVGID_2_);fill:#DC2273;}
	.st115{clip-path:url(#SVGID_2_);fill:#DC2072;}
	.st116{clip-path:url(#SVGID_2_);fill:#DC2073;}
	.st117{clip-path:url(#SVGID_2_);fill:#DC1E72;}
	.st118{clip-path:url(#SVGID_2_);fill:#DB1C70;}
	.st119{clip-path:url(#SVGID_2_);fill:#DB1C71;}
	.st120{clip-path:url(#SVGID_2_);fill:#DB1A6F;}
	.st121{clip-path:url(#SVGID_2_);fill:#DB1A70;}
	.st122{fill-rule:evenodd;clip-rule:evenodd;fill:#636968;}
	.st123{clip-path:url(#SVGID_4_);fill:#FFFFFF;}
	.st124{clip-path:url(#SVGID_4_);fill:#FFFEFE;}
	.st125{clip-path:url(#SVGID_4_);fill:#FFFCFC;}
	.st126{clip-path:url(#SVGID_4_);fill:#FFFBFB;}
	.st127{clip-path:url(#SVGID_4_);fill:#FFFAF8;}
	.st128{clip-path:url(#SVGID_4_);fill:#FDF8F7;}
	.st129{clip-path:url(#SVGID_4_);fill:#FDF7F5;}
	.st130{clip-path:url(#SVGID_4_);fill:#FDF6F5;}
	.st131{clip-path:url(#SVGID_4_);fill:#FEF4F4;}
	.st132{clip-path:url(#SVGID_4_);fill:#FDF4F3;}
	.st133{clip-path:url(#SVGID_4_);fill:#FCF2F2;}
	.st134{clip-path:url(#SVGID_4_);fill:#FCF1F1;}
	.st135{clip-path:url(#SVGID_4_);fill:#FCF0F1;}
	.st136{clip-path:url(#SVGID_4_);fill:#FCF0EF;}
	.st137{clip-path:url(#SVGID_4_);fill:#FCEFEE;}
	.st138{clip-path:url(#SVGID_4_);fill:#FCEDED;}
	.st139{clip-path:url(#SVGID_4_);fill:#FCECEC;}
	.st140{clip-path:url(#SVGID_4_);fill:#F9EBEA;}
	.st141{clip-path:url(#SVGID_4_);fill:#F9EAE9;}
	.st142{clip-path:url(#SVGID_4_);fill:#F9E8E8;}
	.st143{clip-path:url(#SVGID_4_);fill:#F9E7E7;}
	.st144{clip-path:url(#SVGID_4_);fill:#F7E6E5;}
	.st145{clip-path:url(#SVGID_4_);fill:#F7E5E4;}
	.st146{clip-path:url(#SVGID_4_);fill:#F7E4E4;}
	.st147{clip-path:url(#SVGID_4_);fill:#F8E4E3;}
	.st148{clip-path:url(#SVGID_4_);fill:#F8E2E1;}
	.st149{clip-path:url(#SVGID_4_);fill:#F7E1E0;}
	.st150{clip-path:url(#SVGID_4_);fill:#F7E0DF;}
	.st151{clip-path:url(#SVGID_4_);fill:#F7E0DE;}
	.st152{clip-path:url(#SVGID_4_);fill:#F8DFDE;}
	.st153{clip-path:url(#SVGID_4_);fill:#F7DDDC;}
	.st154{clip-path:url(#SVGID_4_);fill:#F7DDDB;}
	.st155{clip-path:url(#SVGID_4_);fill:#F7DCDB;}
	.st156{clip-path:url(#SVGID_4_);fill:#F6DAD9;}
	.st157{clip-path:url(#SVGID_4_);fill:#F5DAD9;}
	.st158{clip-path:url(#SVGID_4_);fill:#F5D9D7;}
	.st159{clip-path:url(#SVGID_4_);fill:#F5D8D7;}
	.st160{clip-path:url(#SVGID_4_);fill:#F5D7D5;}
	.st161{clip-path:url(#SVGID_4_);fill:#F5D6D5;}
	.st162{clip-path:url(#SVGID_4_);fill:#F5D5D4;}
	.st163{clip-path:url(#SVGID_4_);fill:#F5D4D3;}
	.st164{clip-path:url(#SVGID_4_);fill:#F5D4D2;}
	.st165{clip-path:url(#SVGID_4_);fill:#F5D2D1;}
	.st166{clip-path:url(#SVGID_4_);fill:#F4D1D0;}
	.st167{clip-path:url(#SVGID_4_);fill:#F4D1CF;}
	.st168{clip-path:url(#SVGID_4_);fill:#F4D0CE;}
	.st169{clip-path:url(#SVGID_4_);fill:#F4CFCD;}
	.st170{clip-path:url(#SVGID_4_);fill:#F3CECC;}
	.st171{clip-path:url(#SVGID_4_);fill:#F2CDCC;}
	.st172{clip-path:url(#SVGID_4_);fill:#F2CDCA;}
	.st173{clip-path:url(#SVGID_4_);fill:#F2CCCA;}
	.st174{clip-path:url(#SVGID_4_);fill:#F3CBC9;}
	.st175{clip-path:url(#SVGID_4_);fill:#F3CAC8;}
	.st176{clip-path:url(#SVGID_4_);fill:#F2CAC8;}
	.st177{clip-path:url(#SVGID_4_);fill:#F2C9C7;}
	.st178{clip-path:url(#SVGID_4_);fill:#F2C8C6;}
	.st179{clip-path:url(#SVGID_4_);fill:#F2C6C4;}
	.st180{clip-path:url(#SVGID_4_);fill:#F1C5C3;}
	.st181{clip-path:url(#SVGID_4_);fill:#F1C2C0;}
	.st182{clip-path:url(#SVGID_4_);fill:#F1C0BE;}
	.st183{clip-path:url(#SVGID_4_);fill:#F0BEBC;}
	.st184{clip-path:url(#SVGID_4_);fill:#EFBDBA;}
	.st185{clip-path:url(#SVGID_4_);fill:#EFBCB9;}
	.st186{clip-path:url(#SVGID_4_);fill:#EFBBB8;}
	.st187{clip-path:url(#SVGID_4_);fill:#EEB9B7;}
	.st188{clip-path:url(#SVGID_4_);fill:#EEB8B5;}
	.st189{clip-path:url(#SVGID_4_);fill:#EEB7B4;}
	.st190{clip-path:url(#SVGID_4_);fill:#EFB5B3;}
	.st191{clip-path:url(#SVGID_4_);fill:#EFB5B2;}
	.st192{clip-path:url(#SVGID_4_);fill:#EEB4B0;}
	.st193{clip-path:url(#SVGID_4_);fill:#EEB3B0;}
	.st194{clip-path:url(#SVGID_4_);fill:#EEB1AE;}
	.st195{clip-path:url(#SVGID_4_);fill:#EEB0AD;}
	.st196{clip-path:url(#SVGID_4_);fill:#EEAFAC;}
	.st197{clip-path:url(#SVGID_4_);fill:#EDAEAB;}
	.st198{clip-path:url(#SVGID_4_);fill:#EDADAA;}
	.st199{clip-path:url(#SVGID_4_);fill:#EDACA9;}
	.st200{clip-path:url(#SVGID_4_);fill:#EDABA9;}
	.st201{clip-path:url(#SVGID_4_);fill:#EDAAA8;}
	.st202{clip-path:url(#SVGID_4_);fill:#EDA9A6;}
	.st203{clip-path:url(#SVGID_4_);fill:#ECA8A5;}
	.st204{clip-path:url(#SVGID_4_);fill:#ECA7A4;}
	.st205{clip-path:url(#SVGID_4_);fill:#ECA6A4;}
	.st206{fill:#DB1A70;}
	.st207{fill:#21221E;}
</style>
<g>
	<g>
		<g>
			<defs>
				<path id="SVGID_1_" d="M29.32,64.07l37.93-9.99l-3.1,6.06l-0.03,0.06L57.5,73.17c-11.52-2.08-21.83-4.98-30.44-8.5L29.32,64.07z
					 M15.39,58.87c2.88,1.75,6.12,3.41,9.68,4.96l42.99-11.32l1.77-3.47L69.85,49l2.64-5.16l-32.3,8.5L15.39,58.87z M6.75,52.28
					c1.17,1.16,6.03,4.93,7.11,5.63L73.3,42.26l4.43-8.67L6.75,52.28z M0,38.38c0,2.66,0.71,5.26,2.05,7.76l0.05,0.09
					c0.92,1.7,2.13,3.36,3.61,4.96l36.29-9.55l36.54-9.62L94.9,0C42.06,1,0,17.8,0,38.38z"/>
			</defs>
			<clipPath id="SVGID_2_">
				<use xlink:href="#SVGID_1_"  style="overflow:visible;"/>
			</clipPath>
			<polygon class="st0" points="0.5,0 0,1.88 0,0 			"/>
			<polygon class="st0" points="1.05,0 0,3.97 0,1.88 0.5,0 			"/>
			<polygon class="st1" points="1.61,0 0,6.06 0,3.97 1.05,0 			"/>
			<polygon class="st2" points="2.16,0 0,8.16 0,6.06 1.61,0 			"/>
			<polygon class="st3" points="2.71,0 0,10.25 0,8.16 2.16,0 			"/>
			<polygon class="st4" points="3.27,0 0,12.35 0,10.25 2.71,0 			"/>
			<polygon class="st4" points="3.82,0 0,14.44 0,12.35 3.27,0 			"/>
			<polygon class="st5" points="4.38,0 0,16.54 0,14.44 3.82,0 			"/>
			<polygon class="st6" points="4.93,0 0,18.63 0,16.54 4.38,0 			"/>
			<polygon class="st7" points="5.49,0 0,20.73 0,18.63 4.93,0 			"/>
			<polygon class="st8" points="6.04,0 0,22.82 0,20.73 5.49,0 			"/>
			<polygon class="st9" points="6.59,0 0,24.92 0,22.82 6.04,0 			"/>
			<polygon class="st10" points="7.15,0 0,27.01 0,24.92 6.59,0 			"/>
			<polygon class="st11" points="7.7,0 0,29.1 0,27.01 7.15,0 			"/>
			<polygon class="st12" points="8.26,0 0,31.2 0,29.1 7.7,0 			"/>
			<polygon class="st13" points="8.81,0 0,33.29 0,31.2 8.26,0 			"/>
			<polygon class="st14" points="9.37,0 0,35.39 0,33.29 8.81,0 			"/>
			<polygon class="st14" points="9.92,0 0,37.48 0,35.39 9.37,0 			"/>
			<polygon class="st15" points="10.48,0 0,39.58 0,37.48 9.92,0 			"/>
			<polygon class="st16" points="11.03,0 0,41.67 0,39.58 10.48,0 			"/>
			<polygon class="st17" points="11.58,0 0,43.77 0,41.67 11.03,0 			"/>
			<polygon class="st18" points="12.14,0 0,45.86 0,43.77 11.58,0 			"/>
			<polygon class="st19" points="12.69,0 0,47.95 0,45.86 12.14,0 			"/>
			<polygon class="st20" points="13.25,0 0,50.05 0,47.95 12.69,0 			"/>
			<polygon class="st21" points="13.8,0 0.41,50.59 0,50.48 0,50.05 13.25,0 			"/>
			<polygon class="st22" points="14.36,0 0.93,50.73 0.41,50.59 13.8,0 			"/>
			<polygon class="st23" points="14.91,0 1.45,50.87 0.93,50.73 14.36,0 			"/>
			<polygon class="st24" points="15.46,0 1.96,51 1.45,50.87 14.91,0 			"/>
			<polygon class="st25" points="16.02,0 2.48,51.14 1.96,51 15.46,0 			"/>
			<polygon class="st26" points="16.57,0 3.02,51.19 2.67,51.19 2.48,51.14 16.02,0 			"/>
			<polygon class="st27" points="17.13,0 3.58,51.19 3.02,51.19 16.57,0 			"/>
			<polygon class="st28" points="17.68,0 4.13,51.19 3.58,51.19 17.13,0 			"/>
			<polygon class="st29" points="18.24,0 4.69,51.19 4.13,51.19 17.68,0 			"/>
			<polygon class="st30" points="18.79,0 5.24,51.19 4.69,51.19 18.24,0 			"/>
			<polygon class="st31" points="19.35,0 5.8,51.19 5.24,51.19 18.79,0 			"/>
			<polygon class="st32" points="19.9,0 6.35,51.19 5.8,51.19 19.35,0 			"/>
			<polygon class="st33" points="20.45,0 6.9,51.19 6.35,51.19 19.9,0 			"/>
			<polygon class="st34" points="21.01,0 7.46,51.19 6.9,51.19 20.45,0 			"/>
			<polygon class="st35" points="21.56,0 8.01,51.19 7.46,51.19 21.01,0 			"/>
			<polygon class="st36" points="22.12,0 8.57,51.19 8.01,51.19 21.56,0 			"/>
			<polygon class="st37" points="22.67,0 9.12,51.19 8.57,51.19 22.12,0 			"/>
			<polygon class="st38" points="23.23,0 9.68,51.19 9.12,51.19 22.67,0 			"/>
			<polygon class="st39" points="23.78,0 10.23,51.19 9.68,51.19 23.23,0 			"/>
			<polygon class="st40" points="24.33,0 10.78,51.19 10.23,51.19 23.78,0 			"/>
			<polygon class="st41" points="24.89,0 11.34,51.19 10.78,51.19 24.33,0 			"/>
			<polygon class="st41" points="25.44,0 11.89,51.19 11.34,51.19 24.89,0 			"/>
			<polygon class="st42" points="26,0 12.45,51.19 11.89,51.19 25.44,0 			"/>
			<polygon class="st42" points="26.55,0 13,51.19 12.45,51.19 26,0 			"/>
			<polygon class="st43" points="27.11,0 13.56,51.19 13,51.19 26.55,0 			"/>
			<polygon class="st44" points="27.66,0 14.11,51.19 13.56,51.19 27.11,0 			"/>
			<polygon class="st45" points="28.22,0 14.67,51.19 14.11,51.19 27.66,0 			"/>
			<polygon class="st46" points="28.77,0 15.22,51.19 14.67,51.19 28.22,0 			"/>
			<polygon class="st47" points="29.32,0 15.77,51.19 15.22,51.19 28.77,0 			"/>
			<polygon class="st47" points="29.88,0 16.33,51.19 15.77,51.19 29.32,0 			"/>
			<polygon class="st48" points="30.43,0 16.88,51.19 16.33,51.19 29.88,0 			"/>
			<polygon class="st49" points="30.99,0 17.44,51.19 16.88,51.19 30.43,0 			"/>
			<polygon class="st50" points="31.54,0 17.99,51.19 17.44,51.19 30.99,0 			"/>
			<polygon class="st51" points="32.1,0 18.55,51.19 17.99,51.19 31.54,0 			"/>
			<polygon class="st52" points="32.65,0 19.1,51.19 18.55,51.19 32.1,0 			"/>
			<polygon class="st53" points="33.2,0 19.65,51.19 19.1,51.19 32.65,0 			"/>
			<polygon class="st54" points="33.76,0 20.21,51.19 19.65,51.19 33.2,0 			"/>
			<polygon class="st55" points="34.31,0 20.76,51.19 20.21,51.19 33.76,0 			"/>
			<polygon class="st56" points="34.87,0 21.32,51.19 20.76,51.19 34.31,0 			"/>
			<polygon class="st57" points="35.42,0 21.87,51.19 21.32,51.19 34.87,0 			"/>
			<polygon class="st58" points="35.98,0 22.43,51.19 21.87,51.19 35.42,0 			"/>
			<polygon class="st59" points="36.53,0 22.98,51.19 22.43,51.19 35.98,0 			"/>
			<polygon class="st60" points="37.09,0 23.54,51.19 22.98,51.19 36.53,0 			"/>
			<polygon class="st61" points="37.64,0 24.09,51.19 23.54,51.19 37.09,0 			"/>
			<polygon class="st62" points="38.19,0 24.64,51.19 24.09,51.19 37.64,0 			"/>
			<polygon class="st63" points="38.75,0 25.2,51.19 24.64,51.19 38.19,0 			"/>
			<polygon class="st64" points="39.3,0 25.75,51.19 25.2,51.19 38.75,0 			"/>
			<polygon class="st65" points="39.86,0 26.31,51.19 25.75,51.19 39.3,0 			"/>
			<polygon class="st66" points="40.41,0 26.86,51.19 26.31,51.19 39.86,0 			"/>
			<polygon class="st67" points="40.97,0 27.42,51.19 26.86,51.19 40.41,0 			"/>
			<polygon class="st68" points="41.52,0 27.97,51.19 27.42,51.19 40.97,0 			"/>
			<polygon class="st69" points="42.07,0 28.52,51.19 27.97,51.19 41.52,0 			"/>
			<polygon class="st70" points="42.63,0 29.08,51.19 28.52,51.19 42.07,0 			"/>
			<polygon class="st71" points="43.18,0 29.63,51.19 29.08,51.19 42.63,0 			"/>
			<polygon class="st72" points="43.74,0 30.19,51.19 29.63,51.19 43.18,0 			"/>
			<polygon class="st73" points="44.29,0 30.74,51.19 30.19,51.19 43.74,0 			"/>
			<polygon class="st74" points="44.85,0 31.3,51.19 30.74,51.19 44.29,0 			"/>
			<polygon class="st75" points="45.4,0 31.85,51.19 31.3,51.19 44.85,0 			"/>
			<polygon class="st76" points="45.96,0 32.41,51.19 31.85,51.19 45.4,0 			"/>
			<polygon class="st77" points="46.51,0 32.96,51.19 32.41,51.19 45.96,0 			"/>
			<polygon class="st78" points="47.06,0 33.51,51.19 32.96,51.19 46.51,0 			"/>
			<polygon class="st79" points="47.62,0 34.07,51.19 33.51,51.19 47.06,0 			"/>
			<polygon class="st80" points="48.17,0 34.62,51.19 34.07,51.19 47.62,0 			"/>
			<polygon class="st81" points="48.73,0 35.18,51.19 34.62,51.19 48.17,0 			"/>
			<polygon class="st82" points="49.28,0 35.73,51.19 35.18,51.19 48.73,0 			"/>
			<polygon class="st83" points="49.84,0 36.29,51.19 35.73,51.19 49.28,0 			"/>
			<polygon class="st84" points="50.39,0 36.84,51.19 36.29,51.19 49.84,0 			"/>
			<polygon class="st85" points="50.94,0 37.39,51.19 36.84,51.19 50.39,0 			"/>
			<polygon class="st86" points="51.5,0 37.95,51.19 37.39,51.19 50.94,0 			"/>
			<polygon class="st86" points="52.05,0 38.5,51.19 37.95,51.19 51.5,0 			"/>
			<polygon class="st87" points="52.61,0 39.06,51.19 38.5,51.19 52.05,0 			"/>
			<polygon class="st88" points="53.16,0 39.61,51.19 39.06,51.19 52.61,0 			"/>
			<polygon class="st89" points="53.72,0 40.17,51.19 39.61,51.19 53.16,0 			"/>
			<polygon class="st90" points="54.27,0 40.72,51.19 40.17,51.19 53.72,0 			"/>
			<polygon class="st91" points="54.83,0 41.28,51.19 40.72,51.19 54.27,0 			"/>
			<polygon class="st92" points="55.38,0 41.83,51.19 41.28,51.19 54.83,0 			"/>
			<polygon class="st93" points="55.93,0 42.38,51.19 41.83,51.19 55.38,0 			"/>
			<polygon class="st94" points="56.49,0 42.94,51.19 42.38,51.19 55.93,0 			"/>
			<polygon class="st95" points="57.04,0 43.49,51.19 42.94,51.19 56.49,0 			"/>
			<polygon class="st96" points="57.6,0 44.05,51.19 43.49,51.19 57.04,0 			"/>
			<polygon class="st96" points="58.15,0 44.6,51.19 44.05,51.19 57.6,0 			"/>
			<polygon class="st97" points="58.71,0 45.16,51.19 44.6,51.19 58.15,0 			"/>
			<polygon class="st98" points="59.26,0 45.71,51.19 45.16,51.19 58.71,0 			"/>
			<polygon class="st98" points="59.81,0 46.26,51.19 45.71,51.19 59.26,0 			"/>
			<polygon class="st99" points="60.37,0 46.82,51.19 46.26,51.19 59.81,0 			"/>
			<polygon class="st100" points="60.92,0 47.37,51.19 46.82,51.19 60.37,0 			"/>
			<polygon class="st101" points="61.48,0 47.93,51.19 47.37,51.19 60.92,0 			"/>
			<polygon class="st102" points="62.03,0 48.48,51.19 47.93,51.19 61.48,0 			"/>
			<polygon class="st103" points="62.59,0 49.04,51.19 48.48,51.19 62.03,0 			"/>
			<polygon class="st104" points="63.14,0 49.59,51.19 49.04,51.19 62.59,0 			"/>
			<polygon class="st105" points="63.7,0 50.15,51.19 49.59,51.19 63.14,0 			"/>
			<polygon class="st106" points="64.25,0 50.7,51.19 50.15,51.19 63.7,0 			"/>
			<polygon class="st106" points="64.8,0 51.25,51.19 50.7,51.19 64.25,0 			"/>
			<polygon class="st107" points="65.36,0 51.81,51.19 51.25,51.19 64.8,0 			"/>
			<polygon class="st108" points="65.91,0 52.36,51.19 51.81,51.19 65.36,0 			"/>
			<polygon class="st109" points="66.47,0 52.92,51.19 52.36,51.19 65.91,0 			"/>
			<polygon class="st110" points="67.02,0 53.47,51.19 52.92,51.19 66.47,0 			"/>
			<polygon class="st111" points="67.58,0 54.03,51.19 53.47,51.19 67.02,0 			"/>
			<polygon class="st112" points="68.13,0 54.58,51.19 54.03,51.19 67.58,0 			"/>
			<polygon class="st113" points="68.68,0 55.13,51.19 54.58,51.19 68.13,0 			"/>
			<polygon class="st113" points="69.24,0 55.69,51.19 55.13,51.19 68.68,0 			"/>
			<polygon class="st114" points="69.79,0 56.24,51.19 55.69,51.19 69.24,0 			"/>
			<polygon class="st115" points="70.35,0 56.8,51.19 56.24,51.19 69.79,0 			"/>
			<polygon class="st116" points="70.9,0 57.35,51.19 56.8,51.19 70.35,0 			"/>
			<polygon class="st115" points="71.46,0 57.91,51.19 57.35,51.19 70.9,0 			"/>
			<polygon class="st117" points="72.01,0 58.46,51.19 57.91,51.19 71.46,0 			"/>
			<polygon class="st118" points="72.57,0 59.02,51.19 58.46,51.19 72.01,0 			"/>
			<polygon class="st119" points="73.12,0 59.57,51.19 59.02,51.19 72.57,0 			"/>
			<polygon class="st119" points="73.67,0 60.12,51.19 59.57,51.19 73.12,0 			"/>
			<polygon class="st120" points="74.23,0 60.68,51.19 60.12,51.19 73.67,0 			"/>
			<polygon class="st121" points="74.78,0 61.23,51.19 60.68,51.19 74.23,0 			"/>
			<polygon class="st121" points="61.23,51.19 74.78,0 94.9,0 94.9,51.19 			"/>
			<polygon class="st25" points="7.13,33.6 6.75,35.01 6.75,33.6 			"/>
			<polygon class="st26" points="7.68,33.6 6.75,37.11 6.75,35.01 7.13,33.6 			"/>
			<polygon class="st27" points="8.24,33.6 6.75,39.2 6.75,37.11 7.68,33.6 			"/>
			<polygon class="st28" points="8.79,33.6 6.75,41.3 6.75,39.2 8.24,33.6 			"/>
			<polygon class="st29" points="9.34,33.6 6.75,43.39 6.75,41.3 8.79,33.6 			"/>
			<polygon class="st30" points="9.9,33.6 6.75,45.48 6.75,43.39 9.34,33.6 			"/>
			<polygon class="st31" points="10.45,33.6 6.75,47.58 6.75,45.48 9.9,33.6 			"/>
			<polygon class="st32" points="11.01,33.6 6.75,49.67 6.75,47.58 10.45,33.6 			"/>
			<polygon class="st33" points="11.56,33.6 6.75,51.77 6.75,49.67 11.01,33.6 			"/>
			<polygon class="st34" points="12.12,33.6 6.75,53.86 6.75,51.77 11.56,33.6 			"/>
			<polygon class="st35" points="12.67,33.6 6.75,55.96 6.75,53.86 12.12,33.6 			"/>
			<polygon class="st36" points="13.22,33.6 7.05,56.91 6.75,56.83 6.75,55.96 12.67,33.6 			"/>
			<polygon class="st37" points="13.78,33.6 7.57,57.05 7.05,56.91 13.22,33.6 			"/>
			<polygon class="st38" points="14.33,33.6 8.09,57.18 7.57,57.05 13.78,33.6 			"/>
			<polygon class="st39" points="14.89,33.6 8.61,57.32 8.09,57.18 14.33,33.6 			"/>
			<polygon class="st40" points="15.44,33.6 9.13,57.46 8.61,57.32 14.89,33.6 			"/>
			<polygon class="st41" points="16,33.6 9.64,57.59 9.13,57.46 15.44,33.6 			"/>
			<polygon class="st41" points="16.55,33.6 10.16,57.73 9.64,57.59 16,33.6 			"/>
			<polygon class="st42" points="17.11,33.6 10.68,57.87 10.16,57.73 16.55,33.6 			"/>
			<polygon class="st42" points="17.66,33.6 11.22,57.91 10.83,57.91 10.68,57.87 17.11,33.6 			"/>
			<polygon class="st43" points="18.21,33.6 11.78,57.91 11.22,57.91 17.66,33.6 			"/>
			<polygon class="st44" points="18.77,33.6 12.33,57.91 11.78,57.91 18.21,33.6 			"/>
			<polygon class="st45" points="19.32,33.6 12.89,57.91 12.33,57.91 18.77,33.6 			"/>
			<polygon class="st46" points="19.88,33.6 13.44,57.91 12.89,57.91 19.32,33.6 			"/>
			<polygon class="st47" points="20.43,33.6 14,57.91 13.44,57.91 19.88,33.6 			"/>
			<polygon class="st47" points="20.99,33.6 14.55,57.91 14,57.91 20.43,33.6 			"/>
			<polygon class="st48" points="21.54,33.6 15.11,57.91 14.55,57.91 20.99,33.6 			"/>
			<polygon class="st49" points="22.09,33.6 15.66,57.91 15.11,57.91 21.54,33.6 			"/>
			<polygon class="st50" points="22.65,33.6 16.21,57.91 15.66,57.91 22.09,33.6 			"/>
			<polygon class="st51" points="23.2,33.6 16.77,57.91 16.21,57.91 22.65,33.6 			"/>
			<polygon class="st52" points="23.76,33.6 17.32,57.91 16.77,57.91 23.2,33.6 			"/>
			<polygon class="st53" points="24.31,33.6 17.88,57.91 17.32,57.91 23.76,33.6 			"/>
			<polygon class="st54" points="24.87,33.6 18.43,57.91 17.88,57.91 24.31,33.6 			"/>
			<polygon class="st55" points="25.42,33.6 18.99,57.91 18.43,57.91 24.87,33.6 			"/>
			<polygon class="st56" points="25.98,33.6 19.54,57.91 18.99,57.91 25.42,33.6 			"/>
			<polygon class="st57" points="26.53,33.6 20.09,57.91 19.54,57.91 25.98,33.6 			"/>
			<polygon class="st58" points="27.08,33.6 20.65,57.91 20.09,57.91 26.53,33.6 			"/>
			<polygon class="st59" points="27.64,33.6 21.2,57.91 20.65,57.91 27.08,33.6 			"/>
			<polygon class="st60" points="28.19,33.6 21.76,57.91 21.2,57.91 27.64,33.6 			"/>
			<polygon class="st61" points="28.75,33.6 22.31,57.91 21.76,57.91 28.19,33.6 			"/>
			<polygon class="st62" points="29.3,33.6 22.87,57.91 22.31,57.91 28.75,33.6 			"/>
			<polygon class="st63" points="29.86,33.6 23.42,57.91 22.87,57.91 29.3,33.6 			"/>
			<polygon class="st64" points="30.41,33.6 23.98,57.91 23.42,57.91 29.86,33.6 			"/>
			<polygon class="st65" points="30.96,33.6 24.53,57.91 23.98,57.91 30.41,33.6 			"/>
			<polygon class="st66" points="31.52,33.6 25.08,57.91 24.53,57.91 30.96,33.6 			"/>
			<polygon class="st67" points="32.07,33.6 25.64,57.91 25.08,57.91 31.52,33.6 			"/>
			<polygon class="st68" points="32.63,33.6 26.19,57.91 25.64,57.91 32.07,33.6 			"/>
			<polygon class="st69" points="33.18,33.6 26.75,57.91 26.19,57.91 32.63,33.6 			"/>
			<polygon class="st70" points="33.74,33.6 27.3,57.91 26.75,57.91 33.18,33.6 			"/>
			<polygon class="st71" points="34.29,33.6 27.86,57.91 27.3,57.91 33.74,33.6 			"/>
			<polygon class="st72" points="34.85,33.6 28.41,57.91 27.86,57.91 34.29,33.6 			"/>
			<polygon class="st73" points="35.4,33.6 28.96,57.91 28.41,57.91 34.85,33.6 			"/>
			<polygon class="st74" points="35.95,33.6 29.52,57.91 28.96,57.91 35.4,33.6 			"/>
			<polygon class="st75" points="36.51,33.6 30.07,57.91 29.52,57.91 35.95,33.6 			"/>
			<polygon class="st76" points="37.06,33.6 30.63,57.91 30.07,57.91 36.51,33.6 			"/>
			<polygon class="st77" points="37.62,33.6 31.18,57.91 30.63,57.91 37.06,33.6 			"/>
			<polygon class="st78" points="38.17,33.6 31.74,57.91 31.18,57.91 37.62,33.6 			"/>
			<polygon class="st79" points="38.73,33.6 32.29,57.91 31.74,57.91 38.17,33.6 			"/>
			<polygon class="st80" points="39.28,33.6 32.84,57.91 32.29,57.91 38.73,33.6 			"/>
			<polygon class="st81" points="39.83,33.6 33.4,57.91 32.84,57.91 39.28,33.6 			"/>
			<polygon class="st82" points="40.39,33.6 33.95,57.91 33.4,57.91 39.83,33.6 			"/>
			<polygon class="st83" points="40.94,33.6 34.51,57.91 33.95,57.91 40.39,33.6 			"/>
			<polygon class="st84" points="41.5,33.6 35.06,57.91 34.51,57.91 40.94,33.6 			"/>
			<polygon class="st85" points="42.05,33.6 35.62,57.91 35.06,57.91 41.5,33.6 			"/>
			<polygon class="st86" points="42.61,33.6 36.17,57.91 35.62,57.91 42.05,33.6 			"/>
			<polygon class="st86" points="43.16,33.6 36.73,57.91 36.17,57.91 42.61,33.6 			"/>
			<polygon class="st87" points="43.72,33.6 37.28,57.91 36.73,57.91 43.16,33.6 			"/>
			<polygon class="st88" points="44.27,33.6 37.83,57.91 37.28,57.91 43.72,33.6 			"/>
			<polygon class="st89" points="44.82,33.6 38.39,57.91 37.83,57.91 44.27,33.6 			"/>
			<polygon class="st90" points="45.38,33.6 38.94,57.91 38.39,57.91 44.82,33.6 			"/>
			<polygon class="st91" points="45.93,33.6 39.5,57.91 38.94,57.91 45.38,33.6 			"/>
			<polygon class="st92" points="46.49,33.6 40.05,57.91 39.5,57.91 45.93,33.6 			"/>
			<polygon class="st93" points="47.04,33.6 40.61,57.91 40.05,57.91 46.49,33.6 			"/>
			<polygon class="st94" points="47.6,33.6 41.16,57.91 40.61,57.91 47.04,33.6 			"/>
			<polygon class="st95" points="48.15,33.6 41.71,57.91 41.16,57.91 47.6,33.6 			"/>
			<polygon class="st96" points="48.7,33.6 42.27,57.91 41.71,57.91 48.15,33.6 			"/>
			<polygon class="st96" points="49.26,33.6 42.82,57.91 42.27,57.91 48.7,33.6 			"/>
			<polygon class="st97" points="49.81,33.6 43.38,57.91 42.82,57.91 49.26,33.6 			"/>
			<polygon class="st98" points="50.37,33.6 43.93,57.91 43.38,57.91 49.81,33.6 			"/>
			<polygon class="st98" points="50.92,33.6 44.49,57.91 43.93,57.91 50.37,33.6 			"/>
			<polygon class="st99" points="51.48,33.6 45.04,57.91 44.49,57.91 50.92,33.6 			"/>
			<polygon class="st100" points="52.03,33.6 45.6,57.91 45.04,57.91 51.48,33.6 			"/>
			<polygon class="st101" points="52.59,33.6 46.15,57.91 45.6,57.91 52.03,33.6 			"/>
			<polygon class="st102" points="53.14,33.6 46.7,57.91 46.15,57.91 52.59,33.6 			"/>
			<polygon class="st103" points="53.69,33.6 47.26,57.91 46.7,57.91 53.14,33.6 			"/>
			<polygon class="st104" points="54.25,33.6 47.81,57.91 47.26,57.91 53.69,33.6 			"/>
			<polygon class="st105" points="54.8,33.6 48.37,57.91 47.81,57.91 54.25,33.6 			"/>
			<polygon class="st106" points="55.36,33.6 48.92,57.91 48.37,57.91 54.8,33.6 			"/>
			<polygon class="st106" points="55.91,33.6 49.48,57.91 48.92,57.91 55.36,33.6 			"/>
			<polygon class="st107" points="56.47,33.6 50.03,57.91 49.48,57.91 55.91,33.6 			"/>
			<polygon class="st108" points="57.02,33.6 50.58,57.91 50.03,57.91 56.47,33.6 			"/>
			<polygon class="st109" points="57.57,33.6 51.14,57.91 50.58,57.91 57.02,33.6 			"/>
			<polygon class="st110" points="58.13,33.6 51.69,57.91 51.14,57.91 57.57,33.6 			"/>
			<polygon class="st111" points="58.68,33.6 52.25,57.91 51.69,57.91 58.13,33.6 			"/>
			<polygon class="st112" points="59.24,33.6 52.8,57.91 52.25,57.91 58.68,33.6 			"/>
			<polygon class="st113" points="59.79,33.6 53.36,57.91 52.8,57.91 59.24,33.6 			"/>
			<polygon class="st113" points="60.35,33.6 53.91,57.91 53.36,57.91 59.79,33.6 			"/>
			<polygon class="st114" points="60.9,33.6 54.47,57.91 53.91,57.91 60.35,33.6 			"/>
			<polygon class="st115" points="61.46,33.6 55.02,57.91 54.47,57.91 60.9,33.6 			"/>
			<polygon class="st116" points="62.01,33.6 55.57,57.91 55.02,57.91 61.46,33.6 			"/>
			<polygon class="st115" points="62.56,33.6 56.13,57.91 55.57,57.91 62.01,33.6 			"/>
			<polygon class="st117" points="63.12,33.6 56.68,57.91 56.13,57.91 62.56,33.6 			"/>
			<polygon class="st118" points="63.67,33.6 57.24,57.91 56.68,57.91 63.12,33.6 			"/>
			<polygon class="st119" points="64.23,33.6 57.79,57.91 57.24,57.91 63.67,33.6 			"/>
			<polygon class="st119" points="64.78,33.6 58.35,57.91 57.79,57.91 64.23,33.6 			"/>
			<polygon class="st120" points="65.34,33.6 58.9,57.91 58.35,57.91 64.78,33.6 			"/>
			<polygon class="st121" points="65.89,33.6 59.45,57.91 58.9,57.91 65.34,33.6 			"/>
			<polygon class="st121" points="59.45,57.91 65.89,33.6 77.73,33.6 77.73,57.91 			"/>
			<polygon class="st43" points="15.5,43.84 15.39,44.25 15.39,43.84 			"/>
			<polygon class="st44" points="16.06,43.84 15.39,46.35 15.39,44.25 15.5,43.84 			"/>
			<polygon class="st45" points="16.61,43.84 15.39,48.44 15.39,46.35 16.06,43.84 			"/>
			<polygon class="st46" points="17.17,43.84 15.39,50.54 15.39,48.44 16.61,43.84 			"/>
			<polygon class="st47" points="17.72,43.84 15.39,52.63 15.39,50.54 17.17,43.84 			"/>
			<polygon class="st47" points="18.27,43.84 15.39,54.73 15.39,52.63 17.72,43.84 			"/>
			<polygon class="st48" points="18.83,43.84 15.39,56.82 15.39,54.73 18.27,43.84 			"/>
			<polygon class="st49" points="19.38,43.84 15.39,58.91 15.39,56.82 18.83,43.84 			"/>
			<polygon class="st50" points="19.94,43.84 15.39,61.01 15.39,58.91 19.38,43.84 			"/>
			<polygon class="st51" points="20.49,43.84 15.65,62.14 15.39,62.07 15.39,61.01 19.94,43.84 			"/>
			<polygon class="st52" points="21.05,43.84 16.17,62.27 15.65,62.14 20.49,43.84 			"/>
			<polygon class="st53" points="21.6,43.84 16.69,62.41 16.17,62.27 21.05,43.84 			"/>
			<polygon class="st54" points="22.15,43.84 17.2,62.55 16.69,62.41 21.6,43.84 			"/>
			<polygon class="st55" points="22.71,43.84 17.72,62.68 17.2,62.55 22.15,43.84 			"/>
			<polygon class="st56" points="23.26,43.84 18.24,62.82 17.72,62.68 22.71,43.84 			"/>
			<polygon class="st57" points="23.82,43.84 18.76,62.96 18.24,62.82 23.26,43.84 			"/>
			<polygon class="st58" points="24.37,43.84 19.28,63.1 18.76,62.96 23.82,43.84 			"/>
			<polygon class="st59" points="24.93,43.84 19.79,63.23 19.28,63.1 24.37,43.84 			"/>
			<polygon class="st60" points="25.48,43.84 20.31,63.37 19.79,63.23 24.93,43.84 			"/>
			<polygon class="st61" points="26.04,43.84 20.83,63.51 20.31,63.37 25.48,43.84 			"/>
			<polygon class="st62" points="26.59,43.84 21.35,63.64 20.83,63.51 26.04,43.84 			"/>
			<polygon class="st63" points="27.14,43.84 21.87,63.78 21.35,63.64 26.59,43.84 			"/>
			<polygon class="st64" points="27.7,43.84 22.41,63.83 22.04,63.83 21.87,63.78 27.14,43.84 			"/>
			<polygon class="st65" points="28.25,43.84 22.96,63.83 22.41,63.83 27.7,43.84 			"/>
			<polygon class="st66" points="28.81,43.84 23.52,63.83 22.96,63.83 28.25,43.84 			"/>
			<polygon class="st67" points="29.36,43.84 24.07,63.83 23.52,63.83 28.81,43.84 			"/>
			<polygon class="st68" points="29.92,43.84 24.63,63.83 24.07,63.83 29.36,43.84 			"/>
			<polygon class="st69" points="30.47,43.84 25.18,63.83 24.63,63.83 29.92,43.84 			"/>
			<polygon class="st70" points="31.02,43.84 25.73,63.83 25.18,63.83 30.47,43.84 			"/>
			<polygon class="st71" points="31.58,43.84 26.29,63.83 25.73,63.83 31.02,43.84 			"/>
			<polygon class="st72" points="32.13,43.84 26.84,63.83 26.29,63.83 31.58,43.84 			"/>
			<polygon class="st73" points="32.69,43.84 27.4,63.83 26.84,63.83 32.13,43.84 			"/>
			<polygon class="st74" points="33.24,43.84 27.95,63.83 27.4,63.83 32.69,43.84 			"/>
			<polygon class="st75" points="33.8,43.84 28.51,63.83 27.95,63.83 33.24,43.84 			"/>
			<polygon class="st76" points="34.35,43.84 29.06,63.83 28.51,63.83 33.8,43.84 			"/>
			<polygon class="st77" points="34.91,43.84 29.62,63.83 29.06,63.83 34.35,43.84 			"/>
			<polygon class="st78" points="35.46,43.84 30.17,63.83 29.62,63.83 34.91,43.84 			"/>
			<polygon class="st79" points="36.01,43.84 30.72,63.83 30.17,63.83 35.46,43.84 			"/>
			<polygon class="st80" points="36.57,43.84 31.28,63.83 30.72,63.83 36.01,43.84 			"/>
			<polygon class="st81" points="37.12,43.84 31.83,63.83 31.28,63.83 36.57,43.84 			"/>
			<polygon class="st82" points="37.68,43.84 32.39,63.83 31.83,63.83 37.12,43.84 			"/>
			<polygon class="st83" points="38.23,43.84 32.94,63.83 32.39,63.83 37.68,43.84 			"/>
			<polygon class="st84" points="38.79,43.84 33.5,63.83 32.94,63.83 38.23,43.84 			"/>
			<polygon class="st85" points="39.34,43.84 34.05,63.83 33.5,63.83 38.79,43.84 			"/>
			<polygon class="st86" points="39.89,43.84 34.6,63.83 34.05,63.83 39.34,43.84 			"/>
			<polygon class="st86" points="40.45,43.84 35.16,63.83 34.6,63.83 39.89,43.84 			"/>
			<polygon class="st87" points="41,43.84 35.71,63.83 35.16,63.83 40.45,43.84 			"/>
			<polygon class="st88" points="41.56,43.84 36.27,63.83 35.71,63.83 41,43.84 			"/>
			<polygon class="st89" points="42.11,43.84 36.82,63.83 36.27,63.83 41.56,43.84 			"/>
			<polygon class="st90" points="42.67,43.84 37.38,63.83 36.82,63.83 42.11,43.84 			"/>
			<polygon class="st91" points="43.22,43.84 37.93,63.83 37.38,63.83 42.67,43.84 			"/>
			<polygon class="st92" points="43.78,43.84 38.49,63.83 37.93,63.83 43.22,43.84 			"/>
			<polygon class="st93" points="44.33,43.84 39.04,63.83 38.49,63.83 43.78,43.84 			"/>
			<polygon class="st94" points="44.88,43.84 39.59,63.83 39.04,63.83 44.33,43.84 			"/>
			<polygon class="st95" points="45.44,43.84 40.15,63.83 39.59,63.83 44.88,43.84 			"/>
			<polygon class="st96" points="45.99,43.84 40.7,63.83 40.15,63.83 45.44,43.84 			"/>
			<polygon class="st96" points="46.55,43.84 41.26,63.83 40.7,63.83 45.99,43.84 			"/>
			<polygon class="st97" points="47.1,43.84 41.81,63.83 41.26,63.83 46.55,43.84 			"/>
			<polygon class="st98" points="47.66,43.84 42.37,63.83 41.81,63.83 47.1,43.84 			"/>
			<polygon class="st98" points="48.21,43.84 42.92,63.83 42.37,63.83 47.66,43.84 			"/>
			<polygon class="st99" points="48.76,43.84 43.47,63.83 42.92,63.83 48.21,43.84 			"/>
			<polygon class="st100" points="49.32,43.84 44.03,63.83 43.47,63.83 48.76,43.84 			"/>
			<polygon class="st101" points="49.87,43.84 44.58,63.83 44.03,63.83 49.32,43.84 			"/>
			<polygon class="st102" points="50.43,43.84 45.14,63.83 44.58,63.83 49.87,43.84 			"/>
			<polygon class="st103" points="50.98,43.84 45.69,63.83 45.14,63.83 50.43,43.84 			"/>
			<polygon class="st104" points="51.54,43.84 46.25,63.83 45.69,63.83 50.98,43.84 			"/>
			<polygon class="st105" points="52.09,43.84 46.8,63.83 46.25,63.83 51.54,43.84 			"/>
			<polygon class="st106" points="52.65,43.84 47.36,63.83 46.8,63.83 52.09,43.84 			"/>
			<polygon class="st106" points="53.2,43.84 47.91,63.83 47.36,63.83 52.65,43.84 			"/>
			<polygon class="st107" points="53.75,43.84 48.46,63.83 47.91,63.83 53.2,43.84 			"/>
			<polygon class="st108" points="54.31,43.84 49.02,63.83 48.46,63.83 53.75,43.84 			"/>
			<polygon class="st109" points="54.86,43.84 49.57,63.83 49.02,63.83 54.31,43.84 			"/>
			<polygon class="st110" points="55.42,43.84 50.13,63.83 49.57,63.83 54.86,43.84 			"/>
			<polygon class="st111" points="55.97,43.84 50.68,63.83 50.13,63.83 55.42,43.84 			"/>
			<polygon class="st112" points="56.53,43.84 51.24,63.83 50.68,63.83 55.97,43.84 			"/>
			<polygon class="st113" points="57.08,43.84 51.79,63.83 51.24,63.83 56.53,43.84 			"/>
			<polygon class="st113" points="57.63,43.84 52.34,63.83 51.79,63.83 57.08,43.84 			"/>
			<polygon class="st114" points="58.19,43.84 52.9,63.83 52.34,63.83 57.63,43.84 			"/>
			<polygon class="st115" points="58.74,43.84 53.45,63.83 52.9,63.83 58.19,43.84 			"/>
			<polygon class="st116" points="59.3,43.84 54.01,63.83 53.45,63.83 58.74,43.84 			"/>
			<polygon class="st115" points="59.85,43.84 54.56,63.83 54.01,63.83 59.3,43.84 			"/>
			<polygon class="st117" points="60.41,43.84 55.12,63.83 54.56,63.83 59.85,43.84 			"/>
			<polygon class="st118" points="60.96,43.84 55.67,63.83 55.12,63.83 60.41,43.84 			"/>
			<polygon class="st119" points="61.52,43.84 56.23,63.83 55.67,63.83 60.96,43.84 			"/>
			<polygon class="st119" points="62.07,43.84 56.78,63.83 56.23,63.83 61.52,43.84 			"/>
			<polygon class="st120" points="62.62,43.84 57.33,63.83 56.78,63.83 62.07,43.84 			"/>
			<polygon class="st121" points="63.18,43.84 57.89,63.83 57.33,63.83 62.62,43.84 			"/>
			<polygon class="st121" points="57.89,63.83 63.18,43.84 72.49,43.84 72.49,63.83 			"/>
			<polygon class="st68" points="27.2,54.09 27.06,54.64 27.06,54.09 			"/>
			<polygon class="st69" points="27.76,54.09 27.06,56.73 27.06,54.64 27.2,54.09 			"/>
			<polygon class="st70" points="28.31,54.09 27.06,58.83 27.06,56.73 27.76,54.09 			"/>
			<polygon class="st71" points="28.87,54.09 27.06,60.92 27.06,58.83 28.31,54.09 			"/>
			<polygon class="st72" points="29.42,54.09 27.06,63.02 27.06,60.92 28.87,54.09 			"/>
			<polygon class="st73" points="29.98,54.09 27.06,65.11 27.06,63.02 29.42,54.09 			"/>
			<polygon class="st74" points="30.53,54.09 27.14,66.91 27.06,66.89 27.06,65.11 29.98,54.09 			"/>
			<polygon class="st75" points="31.08,54.09 27.65,67.05 27.14,66.91 30.53,54.09 			"/>
			<polygon class="st76" points="31.64,54.09 28.17,67.18 27.65,67.05 31.08,54.09 			"/>
			<polygon class="st77" points="32.19,54.09 28.69,67.32 28.17,67.18 31.64,54.09 			"/>
			<polygon class="st78" points="32.75,54.09 29.21,67.46 28.69,67.32 32.19,54.09 			"/>
			<polygon class="st79" points="33.3,54.09 29.73,67.59 29.21,67.46 32.75,54.09 			"/>
			<polygon class="st80" points="33.86,54.09 30.25,67.73 29.73,67.59 33.3,54.09 			"/>
			<polygon class="st81" points="34.41,54.09 30.76,67.87 30.25,67.73 33.86,54.09 			"/>
			<polygon class="st82" points="34.97,54.09 31.28,68.01 30.76,67.87 34.41,54.09 			"/>
			<polygon class="st83" points="35.52,54.09 31.8,68.14 31.28,68.01 34.97,54.09 			"/>
			<polygon class="st84" points="36.07,54.09 32.32,68.28 31.8,68.14 35.52,54.09 			"/>
			<polygon class="st85" points="36.63,54.09 32.84,68.42 32.32,68.28 36.07,54.09 			"/>
			<polygon class="st86" points="37.18,54.09 33.35,68.55 32.84,68.42 36.63,54.09 			"/>
			<polygon class="st86" points="37.74,54.09 33.87,68.69 33.35,68.55 37.18,54.09 			"/>
			<polygon class="st87" points="38.29,54.09 34.39,68.83 33.87,68.69 37.74,54.09 			"/>
			<polygon class="st88" points="38.85,54.09 34.91,68.97 34.39,68.83 38.29,54.09 			"/>
			<polygon class="st89" points="39.4,54.09 35.43,69.1 34.91,68.97 38.85,54.09 			"/>
			<polygon class="st90" points="39.95,54.09 35.94,69.24 35.43,69.1 39.4,54.09 			"/>
			<polygon class="st91" points="40.51,54.09 36.46,69.38 35.94,69.24 39.95,54.09 			"/>
			<polygon class="st92" points="41.06,54.09 36.98,69.51 36.46,69.38 40.51,54.09 			"/>
			<polygon class="st93" points="41.62,54.09 37.5,69.65 36.98,69.51 41.06,54.09 			"/>
			<polygon class="st94" points="42.17,54.09 38.02,69.79 37.5,69.65 41.62,54.09 			"/>
			<polygon class="st95" points="42.73,54.09 38.53,69.93 38.02,69.79 42.17,54.09 			"/>
			<polygon class="st96" points="43.28,54.09 39.05,70.06 38.53,69.93 42.73,54.09 			"/>
			<polygon class="st96" points="43.84,54.09 39.57,70.2 39.05,70.06 43.28,54.09 			"/>
			<polygon class="st97" points="44.39,54.09 40.09,70.34 39.57,70.2 43.84,54.09 			"/>
			<polygon class="st98" points="44.94,54.09 40.61,70.47 40.09,70.34 44.39,54.09 			"/>
			<polygon class="st98" points="45.5,54.09 41.12,70.61 40.61,70.47 44.94,54.09 			"/>
			<polygon class="st99" points="46.05,54.09 41.64,70.75 41.12,70.61 45.5,54.09 			"/>
			<polygon class="st100" points="46.61,54.09 42.16,70.88 41.64,70.75 46.05,54.09 			"/>
			<polygon class="st101" points="47.16,54.09 42.68,71.02 42.16,70.88 46.61,54.09 			"/>
			<polygon class="st102" points="47.72,54.09 43.2,71.16 42.68,71.02 47.16,54.09 			"/>
			<polygon class="st103" points="48.27,54.09 43.72,71.3 43.2,71.16 47.72,54.09 			"/>
			<polygon class="st104" points="48.82,54.09 44.23,71.43 43.72,71.3 48.27,54.09 			"/>
			<polygon class="st105" points="49.38,54.09 44.75,71.57 44.23,71.43 48.82,54.09 			"/>
			<polygon class="st106" points="49.93,54.09 45.27,71.71 44.75,71.57 49.38,54.09 			"/>
			<polygon class="st106" points="50.49,54.09 45.79,71.84 45.27,71.71 49.93,54.09 			"/>
			<polygon class="st107" points="51.04,54.09 46.31,71.98 45.79,71.84 50.49,54.09 			"/>
			<polygon class="st108" points="51.6,54.09 46.82,72.12 46.31,71.98 51.04,54.09 			"/>
			<polygon class="st109" points="52.15,54.09 47.34,72.26 46.82,72.12 51.6,54.09 			"/>
			<polygon class="st110" points="52.71,54.09 47.86,72.39 47.34,72.26 52.15,54.09 			"/>
			<polygon class="st111" points="53.26,54.09 48.38,72.53 47.86,72.39 52.71,54.09 			"/>
			<polygon class="st112" points="53.81,54.09 48.9,72.67 48.38,72.53 53.26,54.09 			"/>
			<polygon class="st113" points="54.37,54.09 49.41,72.8 48.9,72.67 53.81,54.09 			"/>
			<polygon class="st113" points="54.92,54.09 49.93,72.94 49.41,72.8 54.37,54.09 			"/>
			<polygon class="st114" points="55.48,54.09 50.45,73.08 49.93,72.94 54.92,54.09 			"/>
			<polygon class="st115" points="56.03,54.09 50.98,73.17 50.81,73.17 50.45,73.08 55.48,54.09 			"/>
			<polygon class="st116" points="56.59,54.09 51.53,73.17 50.98,73.17 56.03,54.09 			"/>
			<polygon class="st115" points="57.14,54.09 52.09,73.17 51.53,73.17 56.59,54.09 			"/>
			<polygon class="st117" points="57.69,54.09 52.64,73.17 52.09,73.17 57.14,54.09 			"/>
			<polygon class="st118" points="58.25,54.09 53.2,73.17 52.64,73.17 57.69,54.09 			"/>
			<polygon class="st119" points="58.8,54.09 53.75,73.17 53.2,73.17 58.25,54.09 			"/>
			<polygon class="st119" points="59.36,54.09 54.31,73.17 53.75,73.17 58.8,54.09 			"/>
			<polygon class="st120" points="59.91,54.09 54.86,73.17 54.31,73.17 59.36,54.09 			"/>
			<polygon class="st121" points="60.47,54.09 55.41,73.17 54.86,73.17 59.91,54.09 			"/>
			<polygon class="st121" points="55.41,73.17 60.47,54.09 67.25,54.09 67.25,73.17 			"/>
		</g>
	</g>
	<g>
		<path class="st122" d="M193.89,25.89v-0.72h4.25v0.72H193.89L193.89,25.89z M198.02,32.2v-0.5h-0.31c-1.61,0-2.73,0.18-3.34,0.55
			c-0.55,0.32-0.82,0.81-0.82,1.45c0,0.51,0.18,0.9,0.54,1.16c0.31,0.23,0.75,0.34,1.31,0.34c0.86,0,1.51-0.24,1.96-0.72
			C197.79,34,198.02,33.24,198.02,32.2L198.02,32.2L198.02,32.2z M198.12,35.87v-1.33c-0.26,0.48-0.65,0.85-1.18,1.12
			c-0.53,0.27-1.09,0.41-1.68,0.41c-1.1,0-1.9-0.29-2.4-0.88c-0.35-0.41-0.52-0.9-0.52-1.46c0-1.23,0.62-2.05,1.86-2.49
			c0.8-0.28,2-0.42,3.6-0.42h0.21v-0.42c0-0.73-0.16-1.26-0.47-1.61c-0.31-0.35-0.83-0.52-1.55-0.52c-0.97,0-1.84,0.23-2.61,0.68
			v-0.99c0.36-0.16,0.78-0.3,1.26-0.41c0.48-0.11,0.93-0.16,1.35-0.16c1.1,0,1.9,0.24,2.38,0.73c0.49,0.49,0.73,1.27,0.73,2.36v3.66
			c0,0.3,0,0.59,0.01,0.85c0.01,0.26,0.03,0.56,0.08,0.89L198.12,35.87L198.12,35.87z M184.32,35.87v-12.2h1.1v7.31l3.97-3.41h1.41
			l-4.33,3.68l4.86,4.62h-1.52l-4.39-4.26v4.26H184.32L184.32,35.87z M176.77,35.68l0.12-1.01c0.35,0.16,0.71,0.29,1.1,0.38
			c0.39,0.09,0.79,0.14,1.21,0.14c0.55,0,1.02-0.13,1.4-0.39c0.37-0.26,0.56-0.62,0.56-1.09c0-0.53-0.37-0.99-1.1-1.38
			c-0.68-0.32-1.37-0.65-2.05-0.99c-0.74-0.46-1.11-1.02-1.11-1.69c0-0.77,0.3-1.35,0.89-1.74c0.52-0.35,1.19-0.52,2-0.52
			c0.28,0,0.62,0.03,1.03,0.09c0.41,0.06,0.79,0.16,1.17,0.29l-0.1,0.89c-0.3-0.13-0.62-0.23-0.95-0.29
			c-0.33-0.07-0.67-0.1-1.02-0.1c-0.6,0-1.07,0.11-1.41,0.32c-0.34,0.21-0.5,0.57-0.5,1.07c0,0.4,0.38,0.78,1.13,1.14
			c1.32,0.62,2.02,0.95,2.1,1.01c0.75,0.51,1.13,1.15,1.13,1.92c0,0.8-0.35,1.42-1.04,1.84c-0.57,0.35-1.25,0.52-2.05,0.52
			c-0.46,0-0.9-0.03-1.3-0.09C177.56,35.92,177.16,35.82,176.77,35.68L176.77,35.68L176.77,35.68z M174.78,24v1.37h-1.1V24H174.78
			L174.78,24z M173.69,35.87v-8.3h1.1v8.3H173.69L173.69,35.87z M171.72,27.58v0.88h-2.02v5.37c0,0.42,0.09,0.76,0.27,1
			c0.18,0.24,0.48,0.37,0.91,0.37c0.21,0,0.38-0.01,0.51-0.04c0.13-0.03,0.3-0.08,0.5-0.16l0.07,0.85
			c-0.14,0.05-0.34,0.11-0.59,0.16c-0.26,0.05-0.5,0.07-0.75,0.07c-0.88,0-1.46-0.27-1.74-0.81c-0.18-0.36-0.28-1.01-0.28-1.95
			v-4.85h-1.74v-0.88h1.74v-2l1.1-0.36v2.36H171.72L171.72,27.58z M165.14,27.58v6.34c0,0.33,0,0.64,0.01,0.94
			c0,0.3,0.03,0.64,0.06,1.01l-1.06,0v-1.48c-0.27,0.5-0.57,0.87-0.9,1.12c-0.5,0.37-1.17,0.55-2,0.55c-1.03,0-1.81-0.3-2.33-0.91
			c-0.46-0.54-0.7-1.3-0.7-2.28v-5.3h1.1v5.04c0,0.84,0.17,1.47,0.5,1.91c0.33,0.44,0.87,0.66,1.61,0.66c0.9,0,1.59-0.33,2.05-0.99
			c0.38-0.55,0.57-1.23,0.57-2.03v-4.59H165.14L165.14,27.58z M154.51,32.2v-0.5h-0.31c-1.61,0-2.73,0.18-3.34,0.55
			c-0.54,0.32-0.82,0.81-0.82,1.45c0,0.51,0.18,0.9,0.54,1.16c0.31,0.23,0.75,0.34,1.3,0.34c0.86,0,1.51-0.24,1.96-0.72
			C154.28,34,154.51,33.24,154.51,32.2L154.51,32.2L154.51,32.2z M154.61,35.87v-1.33c-0.26,0.48-0.65,0.85-1.18,1.12
			c-0.53,0.27-1.09,0.41-1.68,0.41c-1.1,0-1.9-0.29-2.4-0.88c-0.35-0.41-0.52-0.9-0.52-1.46c0-1.23,0.62-2.05,1.86-2.49
			c0.8-0.28,2-0.42,3.6-0.42h0.21v-0.42c0-0.73-0.16-1.26-0.47-1.61c-0.31-0.35-0.83-0.52-1.55-0.52c-0.97,0-1.84,0.23-2.61,0.68
			v-0.99c0.36-0.16,0.78-0.3,1.26-0.41c0.48-0.11,0.93-0.16,1.35-0.16c1.1,0,1.9,0.24,2.39,0.73c0.49,0.49,0.73,1.27,0.73,2.36v3.66
			c0,0.3,0,0.59,0.01,0.85c0.01,0.26,0.03,0.56,0.08,0.89L154.61,35.87L154.61,35.87z M147.55,27.58v0.88h-2.02v5.37
			c0,0.42,0.09,0.76,0.27,1c0.18,0.24,0.48,0.37,0.91,0.37c0.21,0,0.38-0.01,0.51-0.04c0.13-0.03,0.3-0.08,0.5-0.16l0.07,0.85
			c-0.14,0.05-0.34,0.11-0.59,0.16c-0.25,0.05-0.5,0.07-0.75,0.07c-0.88,0-1.46-0.27-1.74-0.81c-0.19-0.36-0.28-1.01-0.28-1.95
			l0-4.85h-1.74v-0.88h1.74v-2l1.1-0.36v2.36H147.55L147.55,27.58z M140.29,31.73c0-0.98-0.18-1.76-0.52-2.34
			c-0.44-0.75-1.14-1.12-2.11-1.12c-0.88,0-1.56,0.39-2.04,1.16c-0.39,0.64-0.59,1.41-0.59,2.31c0,0.9,0.19,1.66,0.57,2.29
			c0.48,0.78,1.16,1.17,2.05,1.17c0.94,0,1.64-0.37,2.09-1.12C140.11,33.47,140.29,32.69,140.29,31.73L140.29,31.73L140.29,31.73z
			 M133.94,39.29V27.58h1.1l-0.07,1.51c0.36-0.51,0.64-0.85,0.84-1.02c0.54-0.46,1.22-0.68,2.04-0.68c1.24,0,2.18,0.41,2.8,1.22
			c0.57,0.75,0.85,1.79,0.85,3.12c0,1.29-0.3,2.32-0.9,3.09c-0.65,0.83-1.57,1.25-2.75,1.25c-1.3,0-2.22-0.54-2.77-1.61l-0.03,4.83
			H133.94L133.94,39.29z M128.25,35.87v-6.44v-0.58v-0.18c0-0.37-0.02-0.73-0.07-1.09h1.1v1.59c0.24-0.52,0.54-0.93,0.89-1.24
			c0.42-0.37,0.89-0.55,1.43-0.55c0.12,0,0.25,0.01,0.41,0.03c0.16,0.02,0.28,0.04,0.36,0.07v1.07c-0.23-0.07-0.5-0.1-0.8-0.1
			c-0.79,0-1.38,0.36-1.76,1.09c-0.3,0.58-0.45,1.32-0.45,2.23l0,4.1H128.25L128.25,35.87z M124.54,32.2v-0.5h-0.31
			c-1.61,0-2.73,0.18-3.34,0.55c-0.54,0.32-0.82,0.81-0.82,1.45c0,0.51,0.18,0.9,0.54,1.16c0.31,0.23,0.75,0.34,1.3,0.34
			c0.86,0,1.51-0.24,1.96-0.72C124.32,34,124.54,33.24,124.54,32.2L124.54,32.2L124.54,32.2z M124.64,35.87v-1.33
			c-0.26,0.48-0.65,0.85-1.18,1.12c-0.53,0.27-1.09,0.41-1.68,0.41c-1.1,0-1.9-0.29-2.4-0.88c-0.35-0.41-0.52-0.9-0.52-1.46
			c0-1.23,0.62-2.05,1.86-2.49c0.8-0.28,2-0.42,3.6-0.42h0.21v-0.42c0-0.73-0.16-1.26-0.47-1.61c-0.31-0.35-0.83-0.52-1.55-0.52
			c-0.97,0-1.84,0.23-2.61,0.68v-0.99c0.36-0.16,0.78-0.3,1.26-0.41c0.48-0.11,0.93-0.16,1.35-0.16c1.1,0,1.9,0.24,2.39,0.73
			c0.49,0.49,0.73,1.27,0.73,2.36v3.66c0,0.3,0,0.59,0.01,0.85c0.01,0.26,0.03,0.56,0.08,0.89L124.64,35.87L124.64,35.87z
			 M117.58,27.58v0.88h-2.02v5.37c0,0.42,0.09,0.76,0.27,1c0.18,0.24,0.48,0.37,0.91,0.37c0.21,0,0.38-0.01,0.51-0.04
			c0.14-0.03,0.3-0.08,0.5-0.16l0.07,0.85c-0.14,0.05-0.34,0.11-0.59,0.16c-0.25,0.05-0.5,0.07-0.75,0.07
			c-0.88,0-1.46-0.27-1.74-0.81c-0.19-0.36-0.28-1.01-0.28-1.95v-4.85h-1.74v-0.88h1.74v-2l1.1-0.36v2.36H117.58L117.58,27.58z
			 M104.68,35.58l0.16-1.15c0.36,0.22,0.76,0.38,1.21,0.5c0.45,0.12,0.94,0.17,1.47,0.17c0.8,0,1.44-0.18,1.93-0.55
			c0.53-0.41,0.8-1,0.8-1.77c0-0.6-0.48-1.18-1.44-1.74c-0.89-0.49-1.79-0.98-2.68-1.48c-0.96-0.66-1.44-1.42-1.44-2.26
			c0-0.89,0.37-1.61,1.1-2.15c0.73-0.54,1.65-0.81,2.75-0.81c0.51,0,0.95,0.03,1.32,0.1c0.37,0.07,0.72,0.16,1.06,0.28l-0.19,1.02
			c-0.24-0.13-0.57-0.23-0.97-0.31c-0.41-0.08-0.82-0.11-1.24-0.11c-0.72,0-1.31,0.14-1.78,0.42c-0.57,0.35-0.85,0.86-0.85,1.53
			c0,0.61,0.48,1.18,1.44,1.72c0.89,0.49,1.79,0.98,2.68,1.46c0.96,0.67,1.45,1.48,1.45,2.42c0,1.05-0.43,1.87-1.29,2.46
			c-0.74,0.5-1.64,0.75-2.71,0.75c-0.56,0-1.07-0.04-1.52-0.13C105.47,35.85,105.06,35.73,104.68,35.58L104.68,35.58L104.68,35.58z"
			/>
	</g>
	<g>
		<g>
			<defs>
				<path id="SVGID_3_" d="M69.08,68.86c-33.31-7.31-54.01-17.53-54.01-28.82c0-15.59,39.41-29.12,97.02-35.82L69.08,68.86
					L69.08,68.86z"/>
			</defs>
			<clipPath id="SVGID_4_">
				<use xlink:href="#SVGID_3_"  style="overflow:visible;"/>
			</clipPath>
			<polygon class="st123" points="24.37,4.22 15.08,41.17 15.08,4.22 			"/>
			<polygon class="st123" points="25.08,4.22 15.08,43.99 15.08,41.17 24.37,4.22 			"/>
			<polygon class="st123" points="25.79,4.22 15.08,46.8 15.08,43.99 25.08,4.22 			"/>
			<polygon class="st123" points="26.5,4.22 15.08,49.62 15.08,46.8 25.79,4.22 			"/>
			<polygon class="st124" points="27.21,4.22 15.08,52.44 15.08,49.62 26.5,4.22 			"/>
			<polygon class="st125" points="27.92,4.22 15.08,55.25 15.08,52.44 27.21,4.22 			"/>
			<polygon class="st126" points="28.62,4.22 15.3,57.19 15.08,57.14 15.08,55.25 27.92,4.22 			"/>
			<polygon class="st127" points="29.33,4.22 15.97,57.36 15.3,57.19 28.62,4.22 			"/>
			<polygon class="st128" points="30.04,4.22 16.63,57.53 15.97,57.36 29.33,4.22 			"/>
			<polygon class="st129" points="30.75,4.22 17.3,57.7 16.63,57.53 30.04,4.22 			"/>
			<polygon class="st130" points="31.46,4.22 17.97,57.86 17.3,57.7 30.75,4.22 			"/>
			<polygon class="st131" points="32.17,4.22 18.63,58.03 17.97,57.86 31.46,4.22 			"/>
			<polygon class="st132" points="32.87,4.22 19.3,58.2 18.63,58.03 32.17,4.22 			"/>
			<polygon class="st133" points="33.58,4.22 19.96,58.37 19.3,58.2 32.87,4.22 			"/>
			<polygon class="st134" points="34.29,4.22 20.63,58.53 19.96,58.37 33.58,4.22 			"/>
			<polygon class="st135" points="35,4.22 21.3,58.7 20.63,58.53 34.29,4.22 			"/>
			<polygon class="st136" points="35.71,4.22 21.96,58.87 21.3,58.7 35,4.22 			"/>
			<polygon class="st137" points="36.42,4.22 22.63,59.04 21.96,58.87 35.71,4.22 			"/>
			<polygon class="st138" points="37.13,4.22 23.3,59.2 22.63,59.04 36.42,4.22 			"/>
			<polygon class="st139" points="37.83,4.22 23.96,59.37 23.3,59.2 37.13,4.22 			"/>
			<polygon class="st140" points="38.54,4.22 24.63,59.54 23.96,59.37 37.83,4.22 			"/>
			<polygon class="st141" points="39.25,4.22 25.29,59.71 24.63,59.54 38.54,4.22 			"/>
			<polygon class="st142" points="39.96,4.22 25.96,59.87 25.29,59.71 39.25,4.22 			"/>
			<polygon class="st143" points="40.67,4.22 26.63,60.04 25.96,59.87 39.96,4.22 			"/>
			<polygon class="st144" points="41.38,4.22 27.29,60.21 26.63,60.04 40.67,4.22 			"/>
			<polygon class="st145" points="42.08,4.22 27.96,60.38 27.29,60.21 41.38,4.22 			"/>
			<polygon class="st146" points="42.79,4.22 28.63,60.54 27.96,60.38 42.08,4.22 			"/>
			<polygon class="st147" points="43.5,4.22 29.29,60.71 28.63,60.54 42.79,4.22 			"/>
			<polygon class="st148" points="44.21,4.22 29.96,60.88 29.29,60.71 43.5,4.22 			"/>
			<polygon class="st149" points="44.92,4.22 30.63,61.05 29.96,60.88 44.21,4.22 			"/>
			<polygon class="st150" points="45.63,4.22 31.29,61.21 30.63,61.05 44.92,4.22 			"/>
			<polygon class="st151" points="46.34,4.22 31.96,61.38 31.29,61.21 45.63,4.22 			"/>
			<polygon class="st152" points="47.04,4.22 32.62,61.55 31.96,61.38 46.34,4.22 			"/>
			<polygon class="st153" points="47.75,4.22 33.29,61.72 32.62,61.55 47.04,4.22 			"/>
			<polygon class="st154" points="48.46,4.22 33.96,61.88 33.29,61.72 47.75,4.22 			"/>
			<polygon class="st155" points="49.17,4.22 34.62,62.05 33.96,61.88 48.46,4.22 			"/>
			<polygon class="st156" points="49.88,4.22 35.29,62.22 34.62,62.05 49.17,4.22 			"/>
			<polygon class="st157" points="50.59,4.22 35.96,62.39 35.29,62.22 49.88,4.22 			"/>
			<polygon class="st158" points="51.3,4.22 36.62,62.56 35.96,62.39 50.59,4.22 			"/>
			<polygon class="st159" points="52,4.22 37.29,62.72 36.62,62.56 51.3,4.22 			"/>
			<polygon class="st160" points="52.71,4.22 37.96,62.89 37.29,62.72 52,4.22 			"/>
			<polygon class="st161" points="53.42,4.22 38.62,63.06 37.96,62.89 52.71,4.22 			"/>
			<polygon class="st162" points="54.13,4.22 39.29,63.23 38.62,63.06 53.42,4.22 			"/>
			<polygon class="st163" points="54.84,4.22 39.95,63.39 39.29,63.23 54.13,4.22 			"/>
			<polygon class="st164" points="55.55,4.22 40.62,63.56 39.95,63.39 54.84,4.22 			"/>
			<polygon class="st165" points="56.25,4.22 41.29,63.73 40.62,63.56 55.55,4.22 			"/>
			<polygon class="st166" points="56.96,4.22 41.95,63.9 41.29,63.73 56.25,4.22 			"/>
			<polygon class="st167" points="57.67,4.22 42.62,64.06 41.95,63.9 56.96,4.22 			"/>
			<polygon class="st168" points="58.38,4.22 43.29,64.23 42.62,64.06 57.67,4.22 			"/>
			<polygon class="st169" points="59.09,4.22 43.95,64.4 43.29,64.23 58.38,4.22 			"/>
			<polygon class="st170" points="59.8,4.22 44.62,64.57 43.95,64.4 59.09,4.22 			"/>
			<polygon class="st171" points="60.51,4.22 45.29,64.73 44.62,64.57 59.8,4.22 			"/>
			<polygon class="st172" points="61.21,4.22 45.95,64.9 45.29,64.73 60.51,4.22 			"/>
			<polygon class="st173" points="61.92,4.22 46.62,65.07 45.95,64.9 61.21,4.22 			"/>
			<polygon class="st174" points="62.63,4.22 47.28,65.24 46.62,65.07 61.92,4.22 			"/>
			<polygon class="st175" points="63.34,4.22 47.95,65.4 47.28,65.24 62.63,4.22 			"/>
			<polygon class="st176" points="64.05,4.22 48.62,65.57 47.95,65.4 63.34,4.22 			"/>
			<polygon class="st177" points="64.76,4.22 49.28,65.74 48.62,65.57 64.05,4.22 			"/>
			<polygon class="st178" points="65.47,4.22 49.95,65.91 49.28,65.74 64.76,4.22 			"/>
			<polygon class="st178" points="66.92,4.22 51.32,66.25 49.95,65.91 65.47,4.22 			"/>
			<polygon class="st179" points="68.38,4.22 52.69,66.6 51.32,66.25 66.92,4.22 			"/>
			<polygon class="st180" points="69.84,4.22 54.06,66.94 52.69,66.6 68.38,4.22 			"/>
			<polygon class="st181" points="71.3,4.22 55.44,67.29 54.06,66.94 69.84,4.22 			"/>
			<polygon class="st182" points="72.76,4.22 56.81,67.63 55.44,67.29 71.3,4.22 			"/>
			<polygon class="st183" points="74.21,4.22 58.18,67.98 56.81,67.63 72.76,4.22 			"/>
			<polygon class="st184" points="75.67,4.22 59.55,68.32 58.18,67.98 74.21,4.22 			"/>
			<polygon class="st185" points="77.13,4.22 60.92,68.67 59.55,68.32 75.67,4.22 			"/>
			<polygon class="st186" points="78.59,4.22 62.33,68.86 61.67,68.86 60.92,68.67 77.13,4.22 			"/>
			<polygon class="st187" points="80.05,4.22 63.79,68.86 62.33,68.86 78.59,4.22 			"/>
			<polygon class="st188" points="81.51,4.22 65.25,68.86 63.79,68.86 80.05,4.22 			"/>
			<polygon class="st189" points="82.96,4.22 66.71,68.86 65.25,68.86 81.51,4.22 			"/>
			<polygon class="st190" points="84.42,4.22 68.16,68.86 66.71,68.86 82.96,4.22 			"/>
			<polygon class="st191" points="85.88,4.22 69.62,68.86 68.16,68.86 84.42,4.22 			"/>
			<polygon class="st192" points="87.34,4.22 71.08,68.86 69.62,68.86 85.88,4.22 			"/>
			<polygon class="st193" points="88.8,4.22 72.54,68.86 71.08,68.86 87.34,4.22 			"/>
			<polygon class="st194" points="90.25,4.22 74,68.86 72.54,68.86 88.8,4.22 			"/>
			<polygon class="st195" points="91.71,4.22 75.46,68.86 74,68.86 90.25,4.22 			"/>
			<polygon class="st196" points="93.17,4.22 76.91,68.86 75.46,68.86 91.71,4.22 			"/>
			<polygon class="st197" points="94.63,4.22 78.37,68.86 76.91,68.86 93.17,4.22 			"/>
			<polygon class="st198" points="96.09,4.22 79.83,68.86 78.37,68.86 94.63,4.22 			"/>
			<polygon class="st199" points="97.55,4.22 81.29,68.86 79.83,68.86 96.09,4.22 			"/>
			<polygon class="st200" points="99,4.22 82.75,68.86 81.29,68.86 97.55,4.22 			"/>
			<polygon class="st201" points="100.46,4.22 84.21,68.86 82.75,68.86 99,4.22 			"/>
			<polygon class="st201" points="101.92,4.22 85.66,68.86 84.21,68.86 100.46,4.22 			"/>
			<polygon class="st202" points="103.38,4.22 87.12,68.86 85.66,68.86 101.92,4.22 			"/>
			<polygon class="st203" points="104.84,4.22 88.58,68.86 87.12,68.86 103.38,4.22 			"/>
			<polygon class="st203" points="106.3,4.22 90.04,68.86 88.58,68.86 104.84,4.22 			"/>
			<polygon class="st204" points="107.75,4.22 91.5,68.86 90.04,68.86 106.3,4.22 			"/>
			<polygon class="st204" points="109.21,4.22 92.95,68.86 91.5,68.86 107.75,4.22 			"/>
			<polygon class="st204" points="110.67,4.22 94.41,68.86 92.95,68.86 109.21,4.22 			"/>
			<polygon class="st205" points="112.1,4.35 95.87,68.86 94.41,68.86 110.67,4.22 112.1,4.22 			"/>
			<polygon class="st205" points="112.1,10.15 97.33,68.86 95.87,68.86 112.1,4.35 			"/>
			<polygon class="st205" points="112.1,15.94 98.79,68.86 97.33,68.86 112.1,10.15 			"/>
			<polygon class="st205" points="98.79,68.86 112.1,15.94 112.1,68.86 			"/>
		</g>
	</g>
	<g>
		<path class="st206" d="M159.25,45.01l0.23,0.15c-0.05,0.52-0.08,1.15-0.09,1.88l1.13-1.03c0.32-0.29,0.53-0.48,0.63-0.56
			c0.1-0.08,0.34-0.18,0.73-0.29c0.38-0.11,0.78-0.17,1.2-0.17c0.79,0,1.49,0.2,2.08,0.59c0.59,0.39,1.03,0.93,1.32,1.62
			c1.07-1.01,1.69-1.58,1.87-1.69c0.18-0.11,0.46-0.22,0.85-0.34c0.39-0.11,0.78-0.17,1.17-0.17c0.63,0,1.2,0.13,1.72,0.4
			c0.52,0.27,0.94,0.62,1.25,1.06c0.31,0.44,0.49,0.91,0.54,1.41c0.05,0.51,0.08,1.2,0.08,2.09v1.25c0,0.14,0.02,1.12,0.07,2.96
			c0.02,0.75,0.1,1.2,0.25,1.34c0.15,0.14,0.64,0.21,1.46,0.21l0.09,0.09v0.51l-0.09,0.09c-1.01-0.06-1.69-0.09-2.04-0.09
			c-0.2,0-0.77,0.03-1.72,0.09l-0.15-0.13c0.1-1.03,0.15-2.37,0.15-4.03v-1.43c0-1.26-0.06-2.14-0.18-2.64
			c-0.12-0.5-0.4-0.92-0.83-1.24c-0.44-0.32-0.96-0.48-1.56-0.48c-0.43,0-0.83,0.09-1.2,0.26c-0.37,0.17-0.71,0.42-1,0.76
			c-0.3,0.34-0.46,0.65-0.49,0.94c-0.03,0.29-0.05,0.82-0.05,1.6v1.49c0,0.35,0.02,1,0.05,1.96c0.03,0.96,0.07,1.52,0.1,1.68
			c0.04,0.16,0.09,0.27,0.17,0.34c0.08,0.07,0.16,0.11,0.26,0.13c0.1,0.02,0.52,0.05,1.28,0.1l0.11,0.09v0.5l-0.1,0.11
			c-0.99-0.06-1.95-0.09-2.86-0.09c-0.85,0-1.8,0.03-2.85,0.09l-0.11-0.11v-0.5l0.11-0.09c0.77-0.05,1.2-0.08,1.3-0.11
			s0.19-0.07,0.26-0.15c0.08-0.07,0.13-0.19,0.15-0.34c0.03-0.15,0.06-0.67,0.1-1.53c0.04-0.87,0.05-1.52,0.05-1.97v-1.36
			c0-0.9-0.06-1.59-0.18-2.07c-0.12-0.48-0.39-0.89-0.79-1.22c-0.4-0.33-0.91-0.5-1.52-0.5c-0.48,0-0.91,0.09-1.3,0.28
			c-0.39,0.19-0.71,0.42-0.96,0.69c-0.25,0.27-0.4,0.53-0.46,0.77c-0.06,0.24-0.09,0.75-0.09,1.55v1.76c0,0.35,0.02,1,0.05,1.96
			c0.03,0.96,0.07,1.52,0.1,1.68c0.04,0.16,0.09,0.27,0.17,0.34c0.08,0.07,0.16,0.11,0.26,0.13c0.1,0.02,0.53,0.05,1.28,0.1
			l0.11,0.09v0.5l-0.09,0.11c-0.99-0.06-1.95-0.09-2.87-0.09c-0.91,0-1.86,0.03-2.85,0.09l-0.11-0.11v-0.5l0.11-0.09
			c0.77-0.05,1.2-0.08,1.3-0.11s0.19-0.07,0.26-0.15c0.07-0.07,0.13-0.19,0.15-0.34c0.03-0.15,0.06-0.67,0.09-1.53
			c0.04-0.87,0.05-1.52,0.05-1.97v-2.34c0-0.32-0.02-0.75-0.05-1.3c-0.03-0.55-0.06-0.88-0.08-1.01c-0.02-0.13-0.08-0.22-0.18-0.28
			c-0.1-0.06-0.31-0.09-0.62-0.09l-1-0.01l-0.11-0.09V46l0.09-0.09C156.93,45.72,158.21,45.42,159.25,45.01z"/>
		<path class="st206" d="M180.83,48.28l-0.46-0.12l-0.1-0.12v-1.47c1.41-1.05,2.78-1.57,4.11-1.57c0.91,0,1.67,0.17,2.27,0.51
			c0.6,0.34,1.04,0.77,1.31,1.28c0.27,0.51,0.4,1.11,0.4,1.79l-0.06,2.39v3.54c0,0.48,0.03,0.78,0.1,0.88
			c0.07,0.1,0.14,0.17,0.23,0.21c0.09,0.04,0.25,0.07,0.49,0.09l0.68,0.06l0.09,0.11v0.48l-0.09,0.09
			c-0.58-0.05-1.12-0.07-1.62-0.07c-0.48,0-1.05,0.02-1.71,0.07l-0.18-0.17l0.05-1.91l-2.59,2.02c-0.44,0.18-0.91,0.27-1.43,0.27
			c-0.63,0-1.18-0.11-1.63-0.34c-0.46-0.23-0.8-0.55-1.05-0.96c-0.24-0.41-0.36-0.91-0.36-1.5c0-1.17,0.36-2.07,1.09-2.73
			s2.72-1.21,5.97-1.67c0-1.17-0.26-2-0.78-2.48c-0.52-0.48-1.22-0.72-2.1-0.72c-0.46,0-0.88,0.07-1.25,0.2s-0.59,0.24-0.65,0.33
			c-0.06,0.08-0.27,0.57-0.64,1.46L180.83,48.28z M186.35,50.16c-2.22,0.37-3.6,0.77-4.15,1.2c-0.55,0.43-0.82,1.09-0.82,1.99
			c0,1.24,0.61,1.85,1.84,1.85c1.05,0,2.1-0.61,3.13-1.83V50.16z"/>
		<path class="st206" d="M196.5,45.01l0.23,0.15c-0.05,0.53-0.08,1.23-0.1,2.09c0.63-0.52,1.24-1.05,1.81-1.59
			c0.17-0.15,0.32-0.26,0.47-0.33c0.15-0.07,0.39-0.15,0.73-0.23c0.34-0.08,0.69-0.12,1.05-0.12c0.6,0,1.19,0.12,1.75,0.37
			c0.57,0.25,0.99,0.54,1.28,0.87c0.29,0.34,0.49,0.74,0.6,1.19c0.11,0.46,0.17,1.03,0.17,1.7v2.09c0,0.14,0.02,1.12,0.06,2.96
			c0.02,0.75,0.1,1.2,0.25,1.34c0.15,0.14,0.64,0.21,1.47,0.21l0.09,0.09v0.51l-0.09,0.09c-1.01-0.06-1.69-0.09-2.05-0.09
			c-0.21,0-0.78,0.03-1.74,0.09l-0.14-0.13c0.1-1.03,0.15-2.37,0.15-4.03v-1.56c0-0.94-0.02-1.61-0.07-2.02
			c-0.04-0.41-0.18-0.79-0.4-1.12c-0.22-0.34-0.52-0.6-0.89-0.78c-0.37-0.19-0.82-0.28-1.33-0.28c-0.41,0-0.76,0.04-1.06,0.12
			c-0.29,0.08-0.62,0.25-0.99,0.51c-0.36,0.26-0.63,0.5-0.81,0.73c-0.17,0.23-0.28,0.44-0.32,0.63c-0.04,0.19-0.05,0.61-0.05,1.24
			v2.07c0,0.17,0.02,0.74,0.05,1.68c0.03,0.95,0.07,1.5,0.1,1.66c0.04,0.16,0.09,0.27,0.16,0.34c0.07,0.07,0.16,0.12,0.26,0.14
			c0.1,0.02,0.53,0.05,1.28,0.1l0.11,0.09v0.5l-0.09,0.11c-0.99-0.06-1.95-0.09-2.87-0.09c-0.91,0-1.86,0.03-2.85,0.09l-0.11-0.11
			v-0.5l0.11-0.09c0.77-0.05,1.2-0.08,1.3-0.11c0.1-0.02,0.19-0.07,0.26-0.15c0.08-0.07,0.13-0.19,0.15-0.34
			c0.03-0.15,0.06-0.67,0.09-1.53c0.04-0.87,0.05-1.52,0.05-1.97v-2.34c0-0.32-0.02-0.75-0.05-1.3c-0.03-0.55-0.06-0.88-0.08-1.01
			c-0.02-0.13-0.08-0.22-0.18-0.28c-0.1-0.06-0.31-0.09-0.62-0.09l-1-0.01l-0.11-0.09V46l0.09-0.09
			C194.19,45.72,195.46,45.42,196.5,45.01z"/>
		<path class="st206" d="M212.99,45.01l0.23,0.15c-0.09,1.04-0.13,2.36-0.13,3.96v2.69c0,0.17,0.02,0.74,0.05,1.68
			c0.03,0.95,0.07,1.5,0.1,1.66c0.04,0.16,0.09,0.27,0.16,0.34c0.07,0.07,0.16,0.12,0.26,0.14c0.1,0.02,0.53,0.05,1.28,0.1
			l0.11,0.09v0.5l-0.09,0.11c-0.99-0.06-1.95-0.09-2.87-0.09c-0.91,0-1.86,0.03-2.85,0.09l-0.11-0.11v-0.5l0.11-0.09
			c0.77-0.05,1.2-0.08,1.3-0.11c0.1-0.02,0.19-0.07,0.26-0.15c0.07-0.07,0.13-0.19,0.15-0.34c0.03-0.15,0.06-0.67,0.1-1.53
			c0.04-0.87,0.05-1.52,0.05-1.97v-2.34c0-0.32-0.02-0.75-0.05-1.3c-0.03-0.55-0.06-0.88-0.08-1.01c-0.02-0.13-0.08-0.22-0.18-0.28
			c-0.1-0.06-0.31-0.09-0.62-0.09l-1-0.01l-0.11-0.09V46l0.1-0.09C210.68,45.72,211.95,45.42,212.99,45.01z M211.98,39.7
			c0.37,0,0.69,0.13,0.95,0.39c0.26,0.26,0.39,0.58,0.39,0.95c0,0.36-0.13,0.68-0.39,0.94c-0.26,0.26-0.58,0.39-0.95,0.39
			c-0.36,0-0.68-0.13-0.94-0.39c-0.27-0.26-0.4-0.57-0.4-0.95c0-0.37,0.13-0.69,0.4-0.95C211.3,39.83,211.61,39.7,211.98,39.7z"/>
		<path class="st206" d="M221.92,38.74l0.23,0.14c-0.09,0.91-0.13,2.74-0.13,5.48v5.58c0.27-0.16,0.8-0.56,1.59-1.2
			c0.79-0.64,1.63-1.37,2.51-2.19c0.88-0.82,1.34-1.27,1.36-1.34c0.67,0.02,1.08,0.04,1.21,0.04c0.18,0,0.55-0.01,1.11-0.04
			l0.11,0.11v0.46l-0.1,0.11c-0.4,0.02-0.7,0.08-0.91,0.15c-0.21,0.08-0.64,0.34-1.28,0.78c-0.65,0.44-1.41,1.03-2.29,1.75
			l-1.15,0.94c0.42,0.49,1.16,1.26,2.21,2.31c1.05,1.05,1.9,1.86,2.55,2.44s1.07,0.91,1.27,0.99c0.2,0.08,0.41,0.12,0.63,0.12v0.51
			c-0.29,0.06-1.05,0.3-2.27,0.73c-0.82-0.71-1.35-1.18-1.57-1.41l-0.88-0.9l-1.05-1.06c-0.33-0.32-0.76-0.74-1.31-1.24l-1.75-1.62
			v1.41c0,0.17,0.02,0.74,0.05,1.68c0.03,0.95,0.07,1.5,0.1,1.66c0.04,0.16,0.09,0.27,0.16,0.34c0.07,0.07,0.16,0.12,0.26,0.14
			c0.1,0.02,0.53,0.05,1.28,0.1l0.11,0.09v0.5l-0.1,0.11c-0.99-0.06-1.95-0.09-2.87-0.09c-0.91,0-1.86,0.03-2.85,0.09l-0.11-0.11
			v-0.5l0.11-0.09c0.77-0.05,1.2-0.08,1.3-0.11c0.1-0.02,0.19-0.07,0.26-0.15c0.08-0.07,0.13-0.19,0.15-0.34
			c0.03-0.15,0.06-0.67,0.1-1.53c0.04-0.87,0.05-1.52,0.05-1.97v-6.16l-0.05-2.52c-0.02-0.88-0.05-1.49-0.08-1.83
			c-0.03-0.34-0.07-0.54-0.11-0.61c-0.05-0.06-0.13-0.11-0.25-0.14c-0.12-0.03-0.6-0.05-1.44-0.05l-0.11-0.11v-0.5l0.09-0.11
			C219.6,39.44,220.88,39.15,221.92,38.74z"/>
		<path class="st206" d="M239.81,41.9h-7.49v-1.25h7.49V41.9z M237.51,45.01l0.23,0.15c-0.09,1.04-0.13,2.36-0.13,3.96v2.69
			c0,0.17,0.02,0.74,0.05,1.68c0.03,0.95,0.07,1.5,0.1,1.66c0.04,0.16,0.09,0.27,0.16,0.34c0.07,0.07,0.16,0.12,0.26,0.14
			c0.1,0.02,0.53,0.05,1.28,0.1l0.11,0.09v0.5l-0.09,0.11c-0.99-0.06-1.95-0.09-2.87-0.09c-0.91,0-1.86,0.03-2.85,0.09l-0.11-0.11
			v-0.5l0.11-0.09c0.77-0.05,1.2-0.08,1.3-0.11c0.1-0.02,0.19-0.07,0.26-0.15c0.07-0.07,0.13-0.19,0.15-0.34
			c0.03-0.15,0.06-0.67,0.09-1.53c0.04-0.87,0.05-1.52,0.05-1.97v-2.34c0-0.32-0.02-0.75-0.05-1.3c-0.03-0.55-0.06-0.88-0.08-1.01
			c-0.02-0.13-0.08-0.22-0.18-0.28c-0.1-0.06-0.31-0.09-0.62-0.09l-1-0.01l-0.11-0.09V46l0.09-0.09
			C235.2,45.72,236.47,45.42,237.51,45.01z"/>
		<path class="st206" d="M246.68,45.01l0.23,0.15c-0.05,0.46-0.08,1.28-0.11,2.45l0.89-1.13c0.29-0.37,0.55-0.66,0.78-0.86
			s0.49-0.36,0.79-0.47c0.3-0.11,0.61-0.17,0.93-0.17c0.35,0,0.68,0.07,0.99,0.21l0.08,0.17c-0.13,1.05-0.2,1.98-0.21,2.78h-0.53
			c-0.32-0.73-0.83-1.09-1.53-1.09c-0.49,0-0.92,0.16-1.28,0.47c-0.36,0.31-0.61,0.71-0.73,1.18c-0.12,0.47-0.18,1.07-0.18,1.79
			v1.32c0,0.24,0.02,0.82,0.05,1.75s0.07,1.46,0.1,1.6c0.04,0.14,0.09,0.25,0.17,0.31c0.08,0.07,0.17,0.11,0.3,0.14
			c0.12,0.02,0.69,0.06,1.69,0.12l0.11,0.09v0.5l-0.11,0.11c-1.05-0.06-2.16-0.09-3.3-0.09c-0.91,0-1.86,0.03-2.85,0.09l-0.11-0.11
			v-0.5l0.11-0.09c0.77-0.05,1.2-0.08,1.3-0.11s0.19-0.07,0.26-0.15c0.08-0.07,0.13-0.19,0.15-0.34c0.03-0.15,0.06-0.67,0.1-1.53
			c0.04-0.87,0.05-1.52,0.05-1.97v-2.34c0-0.32-0.02-0.75-0.05-1.3c-0.03-0.55-0.06-0.88-0.08-1.01c-0.02-0.13-0.08-0.22-0.18-0.28
			c-0.1-0.06-0.31-0.09-0.62-0.09l-1-0.01l-0.11-0.09V46l0.1-0.09C244.36,45.72,245.64,45.42,246.68,45.01z"/>
		<path class="st206" d="M256.2,48.28l-0.46-0.12l-0.1-0.12v-1.47c1.41-1.05,2.78-1.57,4.11-1.57c0.91,0,1.67,0.17,2.27,0.51
			c0.6,0.34,1.04,0.77,1.31,1.28c0.27,0.51,0.4,1.11,0.4,1.79l-0.06,2.39v3.54c0,0.48,0.03,0.78,0.1,0.88
			c0.07,0.1,0.14,0.17,0.23,0.21c0.09,0.04,0.25,0.07,0.49,0.09l0.68,0.06l0.1,0.11v0.48l-0.1,0.09c-0.58-0.05-1.12-0.07-1.62-0.07
			c-0.48,0-1.05,0.02-1.71,0.07l-0.18-0.17l0.05-1.91l-2.59,2.02c-0.44,0.18-0.91,0.27-1.43,0.27c-0.63,0-1.18-0.11-1.63-0.34
			c-0.46-0.23-0.8-0.55-1.05-0.96c-0.24-0.41-0.36-0.91-0.36-1.5c0-1.17,0.36-2.07,1.09-2.73s2.72-1.21,5.97-1.67
			c0-1.17-0.26-2-0.78-2.48c-0.52-0.48-1.22-0.72-2.1-0.72c-0.46,0-0.88,0.07-1.25,0.2s-0.59,0.24-0.65,0.33
			c-0.06,0.08-0.27,0.57-0.64,1.46L256.2,48.28z M261.71,50.16c-2.22,0.37-3.6,0.77-4.15,1.2c-0.55,0.43-0.82,1.09-0.82,1.99
			c0,1.24,0.61,1.85,1.84,1.85c1.05,0,2.1-0.61,3.13-1.83V50.16z"/>
	</g>
	<g>
		<path class="st207" d="M85.44,73.68h0.52l0.07,0.07c0,0.63,0.07,1.09,0.22,1.4c0.15,0.31,0.41,0.54,0.8,0.72
			c0.39,0.17,0.86,0.26,1.41,0.26c0.95,0,1.68-0.22,2.2-0.67c0.52-0.45,0.77-1.03,0.77-1.75c0-0.33-0.06-0.63-0.18-0.89
			c-0.12-0.26-0.3-0.46-0.55-0.6c-0.25-0.14-0.51-0.24-0.77-0.29c-0.27-0.06-0.64-0.12-1.11-0.2c-0.85-0.13-1.48-0.29-1.91-0.45
			c-0.42-0.17-0.77-0.46-1.05-0.88c-0.28-0.42-0.42-0.93-0.42-1.53c0-0.67,0.19-1.3,0.56-1.91c0.37-0.61,0.89-1.06,1.56-1.35
			c0.67-0.29,1.42-0.44,2.25-0.44c1.06,0,2.03,0.26,2.9,0.78c-0.17,0.72-0.25,1.47-0.26,2.25l-0.08,0.07h-0.48l-0.07-0.07
			c-0.01-0.61-0.05-1.03-0.12-1.25c-0.08-0.23-0.28-0.44-0.62-0.65c-0.34-0.21-0.77-0.32-1.3-0.32c-0.8,0-1.43,0.2-1.9,0.59
			c-0.46,0.4-0.7,0.92-0.7,1.56c0,0.38,0.09,0.69,0.26,0.93c0.17,0.24,0.39,0.41,0.66,0.51c0.27,0.09,0.71,0.19,1.33,0.3
			c1.11,0.18,1.89,0.35,2.35,0.52s0.84,0.47,1.14,0.91c0.3,0.44,0.45,0.99,0.45,1.63c0,1.12-0.46,2.06-1.38,2.84
			c-0.92,0.77-2.13,1.16-3.63,1.16c-1.12,0-2.18-0.21-3.17-0.64c0.11-0.71,0.17-1.55,0.17-2.51L85.44,73.68z"/>
		<path class="st207" d="M111.95,65.52l0.09-0.08c1.55,0.08,3.28,0.12,5.2,0.12c1.95,0,3.68-0.04,5.2-0.12l0.08,0.08
			c-0.05,1.05-0.07,1.93-0.07,2.65l-0.07,0.07h-0.48l-0.07-0.07c-0.1-0.86-0.19-1.36-0.25-1.52c-0.06-0.15-0.15-0.26-0.27-0.3
			c-0.11-0.05-0.34-0.07-0.67-0.07h-2.41l-0.05,3.04v2.71c0,0.59,0.01,1.27,0.02,2.05c0.02,0.78,0.06,1.25,0.14,1.4
			c0.08,0.15,0.19,0.25,0.32,0.3c0.13,0.05,0.5,0.1,1.08,0.16l0.1,0.08v0.5l-0.1,0.09c-0.79-0.06-1.63-0.09-2.51-0.09
			c-0.92,0-1.76,0.03-2.51,0.09l-0.1-0.09v-0.5l0.1-0.08c0.59-0.06,0.96-0.11,1.09-0.16c0.13-0.05,0.24-0.15,0.32-0.31
			c0.08-0.15,0.13-0.54,0.14-1.15c0.02-0.61,0.02-1.38,0.02-2.29v-2.67c-0.02-1.03-0.04-2.06-0.06-3.08h-2.41
			c-0.34,0-0.57,0.03-0.68,0.08c-0.12,0.05-0.2,0.16-0.26,0.33c-0.06,0.17-0.14,0.66-0.24,1.48l-0.07,0.07h-0.46l-0.08-0.07
			C112.02,67.85,112,66.97,111.95,65.52z"/>
		<path class="st207" d="M140.68,66.02v-0.5l0.1-0.08c0.78,0.06,1.64,0.1,2.56,0.1c0.96,0,1.82-0.03,2.57-0.1l0.09,0.08v0.5
			l-0.09,0.09c-0.59,0.06-0.96,0.11-1.09,0.16c-0.13,0.05-0.23,0.15-0.31,0.3c-0.08,0.15-0.12,0.52-0.14,1.09
			c-0.02,0.58-0.03,1.36-0.03,2.34v2.1c0,0.94,0.08,1.63,0.25,2.09c0.17,0.46,0.48,0.81,0.93,1.08c0.45,0.26,1.07,0.39,1.87,0.39
			c0.68,0,1.23-0.09,1.64-0.26c0.41-0.17,0.73-0.41,0.95-0.71s0.38-0.73,0.48-1.27c0.1-0.54,0.15-1.29,0.15-2.23l-0.02-2.83
			c0-0.96-0.02-1.52-0.05-1.68c-0.04-0.16-0.12-0.28-0.24-0.37c-0.12-0.09-0.55-0.16-1.28-0.21l-0.08-0.09v-0.5l0.08-0.08
			c0.71,0.06,1.38,0.1,2.03,0.1c0.67,0,1.37-0.03,2.09-0.1l0.1,0.08v0.5l-0.1,0.09c-0.69,0.06-1.1,0.12-1.24,0.2
			c-0.13,0.08-0.22,0.19-0.26,0.36c-0.04,0.16-0.06,0.73-0.08,1.69l-0.06,4.05c-0.02,0.96-0.12,1.7-0.3,2.23
			c-0.19,0.53-0.49,0.97-0.91,1.33c-0.42,0.36-0.89,0.62-1.4,0.78c-0.51,0.16-1.17,0.24-1.97,0.24c-0.8,0-1.49-0.09-2.06-0.26
			c-0.57-0.17-1.04-0.41-1.4-0.72c-0.36-0.31-0.64-0.72-0.83-1.22c-0.19-0.51-0.28-1.18-0.28-2.03v-2.75c0-0.62-0.01-1.31-0.02-2.07
			c-0.02-0.76-0.07-1.22-0.15-1.37c-0.09-0.15-0.2-0.25-0.33-0.3c-0.13-0.05-0.49-0.1-1.06-0.15L140.68,66.02z"/>
		<path class="st207" d="M172.05,76.53v-0.5l0.09-0.08c0.59-0.06,0.96-0.11,1.08-0.16c0.13-0.05,0.23-0.15,0.31-0.3
			c0.08-0.15,0.13-0.52,0.15-1.09c0.02-0.58,0.02-1.36,0.02-2.35v-2.02c0-0.62-0.01-1.31-0.02-2.07c-0.02-0.76-0.07-1.22-0.15-1.37
			c-0.09-0.15-0.2-0.25-0.33-0.3c-0.13-0.05-0.49-0.1-1.06-0.15l-0.09-0.09v-0.5l0.09-0.08c1.08,0.06,1.87,0.1,2.39,0.1l4.08-0.07
			c0.68,0,1.28,0.06,1.78,0.18c0.51,0.12,0.99,0.34,1.46,0.64c0.47,0.31,0.87,0.68,1.21,1.14c0.34,0.45,0.57,0.93,0.71,1.43
			c0.14,0.5,0.21,1.02,0.21,1.56c0,0.94-0.18,1.82-0.55,2.63c-0.36,0.81-0.85,1.49-1.46,2.04c-0.61,0.55-1.3,0.94-2.07,1.15
			c-0.77,0.21-1.67,0.32-2.68,0.32l-2.66-0.04c-0.81,0.03-1.62,0.06-2.43,0.09L172.05,76.53z M175.73,75.74
			c0.36,0.04,0.81,0.06,1.36,0.06c1.01,0,1.85-0.17,2.5-0.52c0.65-0.34,1.16-0.93,1.51-1.74c0.35-0.82,0.53-1.76,0.53-2.83
			c0-1.37-0.35-2.47-1.05-3.3c-0.7-0.83-1.73-1.24-3.09-1.24c-0.55,0-1.13,0.02-1.76,0.07V75.74z"/>
		<path class="st207" d="M203.35,76.53v-0.5l0.1-0.08c0.59-0.06,0.95-0.11,1.08-0.16c0.13-0.05,0.23-0.15,0.31-0.3
			c0.08-0.15,0.13-0.52,0.15-1.09c0.02-0.58,0.02-1.36,0.02-2.35v-2.02c0-0.62-0.01-1.31-0.02-2.07c-0.02-0.76-0.07-1.22-0.15-1.37
			c-0.09-0.15-0.2-0.25-0.33-0.3c-0.13-0.05-0.49-0.1-1.06-0.15l-0.1-0.09v-0.5l0.1-0.08c0.78,0.06,1.64,0.1,2.56,0.1
			c0.96,0,1.82-0.03,2.57-0.1l0.1,0.08v0.5l-0.1,0.09c-0.59,0.06-0.96,0.11-1.09,0.16c-0.13,0.05-0.23,0.15-0.31,0.3
			c-0.08,0.15-0.12,0.52-0.14,1.09c-0.02,0.58-0.03,1.36-0.03,2.34v2.02c0,0.65,0.01,1.35,0.02,2.1c0.02,0.75,0.07,1.2,0.15,1.36
			c0.08,0.15,0.19,0.25,0.33,0.3c0.13,0.05,0.49,0.1,1.07,0.15l0.1,0.08v0.5l-0.1,0.09c-0.78-0.06-1.64-0.09-2.57-0.09
			c-0.95,0-1.8,0.03-2.56,0.09L203.35,76.53z"/>
		<path class="st207" d="M227.04,78.37l0.24-0.07c0.27,0.3,0.48,0.49,0.64,0.57c0.16,0.08,0.33,0.12,0.51,0.12
			c0.49,0,0.82-0.24,0.99-0.72c0.17-0.48,0.25-1.65,0.25-3.52v-4.73c0-0.62-0.01-1.31-0.02-2.07c-0.01-0.76-0.06-1.22-0.15-1.37
			c-0.09-0.15-0.2-0.25-0.33-0.3c-0.13-0.05-0.49-0.1-1.08-0.15L228,66.02v-0.5l0.09-0.08c0.79,0.06,1.65,0.1,2.57,0.1
			c0.96,0,1.81-0.03,2.57-0.1l0.08,0.08v0.5l-0.08,0.09c-0.59,0.06-0.96,0.11-1.09,0.16c-0.13,0.05-0.24,0.15-0.32,0.3
			c-0.08,0.15-0.13,0.52-0.14,1.09c-0.02,0.58-0.02,1.36-0.02,2.34v4.02c0,1.19-0.04,2.04-0.11,2.54c-0.08,0.51-0.32,1.05-0.73,1.62
			c-0.41,0.57-0.9,1.02-1.49,1.33c-0.58,0.31-1.18,0.47-1.78,0.47c-0.16,0-0.34-0.01-0.55-0.02c0.02-0.27,0.04-0.53,0.04-0.78
			C227.05,79.06,227.04,78.79,227.04,78.37z"/>
		<path class="st207" d="M258.07,65.22h0.78l3.63,8.35c0.41,0.95,0.76,1.57,1.04,1.84c0.28,0.28,0.7,0.46,1.25,0.54l0.08,0.08v0.5
			l-0.08,0.09c-1.19-0.06-2.09-0.09-2.71-0.09c-0.53,0-1.44,0.03-2.73,0.09l-0.07-0.09v-0.5l0.08-0.08
			c0.82-0.09,1.29-0.18,1.41-0.27c0.12-0.09,0.18-0.2,0.18-0.34c0-0.12-0.09-0.43-0.28-0.93c-0.19-0.5-0.4-0.97-0.64-1.41
			c-0.63-0.02-1.42-0.02-2.35-0.02c-0.73,0-1.47,0.01-2.21,0.02c-0.34,0.79-0.56,1.33-0.67,1.6c-0.1,0.27-0.15,0.49-0.15,0.64
			c0,0.21,0.12,0.37,0.36,0.49c0.24,0.12,0.66,0.19,1.24,0.23l0.1,0.08v0.5l-0.07,0.09c-0.82-0.06-1.53-0.09-2.15-0.09
			c-0.65,0-1.37,0.03-2.16,0.09l-0.07-0.09v-0.5l0.1-0.08c0.4,0,0.71-0.07,0.93-0.21c0.22-0.14,0.48-0.44,0.76-0.92
			c0.28-0.47,0.56-1,0.82-1.58L258.07,65.22z M259.74,72.3l-1.99-4.49l-2,4.49c0.52,0.02,1.16,0.02,1.95,0.02
			C258.52,72.32,259.2,72.31,259.74,72.3z"/>
	</g>
</g>
</svg>
