<svg width="200" height="200" viewBox="0 0 200 200" fill="none" xmlns="http://www.w3.org/2000/svg">
<path d="M40 30C34.6957 30 29.6086 32.1071 25.8579 35.8579C22.1071 39.6086 20 44.6957 20 50C20 55.3043 22.1071 60.3914 25.8579 64.1421C29.6086 67.8929 34.6957 70 40 70H160C165.304 70 170.391 67.8929 174.142 64.1421C177.893 60.3914 180 55.3043 180 50C180 44.6957 177.893 39.6086 174.142 35.8579C170.391 32.1071 165.304 30 160 30H40Z" fill="#E5E7EB"/>
<path fill-rule="evenodd" clip-rule="evenodd" d="M30 80H170V150C170 155.304 167.893 160.391 164.142 164.142C160.391 167.893 155.304 170 150 170H50C44.6957 170 39.6086 167.893 35.8579 164.142C32.1071 160.391 30 155.304 30 150V80ZM80 110C80 107.348 81.0536 104.804 82.9289 102.929C84.8043 101.054 87.3478 100 90 100H110C112.652 100 115.196 101.054 117.071 102.929C118.946 104.804 120 107.348 120 110C120 112.652 118.946 115.196 117.071 117.071C115.196 118.946 112.652 120 110 120H90C87.3478 120 84.8043 118.946 82.9289 117.071C81.0536 115.196 80 112.652 80 110Z" fill="#E5E7EB"/>
</svg>
