<svg width="200" height="200" viewBox="0 0 200 200" fill="none" xmlns="http://www.w3.org/2000/svg">
<path fill-rule="evenodd" clip-rule="evenodd" d="M62.6686 34.5488C69.1012 34.0353 75.2077 31.5052 80.1186 27.3188C85.6652 22.5948 92.7129 20.0002 99.9986 20.0002C107.284 20.0002 114.332 22.5948 119.879 27.3188C124.789 31.5052 130.896 34.0353 137.329 34.5488C144.593 35.1294 151.413 38.2785 156.566 43.4315C161.719 48.5845 164.868 55.4045 165.449 62.6688C165.959 69.0988 168.489 75.2088 172.679 80.1188C177.403 85.6655 179.997 92.7131 179.997 99.9988C179.997 107.285 177.403 114.332 172.679 119.879C168.492 124.79 165.962 130.896 165.449 137.329C164.868 144.593 161.719 151.413 156.566 156.566C151.413 161.719 144.593 164.868 137.329 165.449C130.896 165.962 124.789 168.493 119.879 172.679C114.332 177.403 107.284 179.997 99.9986 179.997C92.7129 179.997 85.6652 177.403 80.1186 172.679C75.2077 168.493 69.1012 165.962 62.6686 165.449C55.4043 164.868 48.5843 161.719 43.4313 156.566C38.2782 151.413 35.1292 144.593 34.5486 137.329C34.035 130.896 31.5049 124.79 27.3186 119.879C22.5945 114.332 20 107.285 20 99.9988C20 92.7131 22.5945 85.6655 27.3186 80.1188C31.5049 75.208 34.035 69.1014 34.5486 62.6688C35.1292 55.4045 38.2782 48.5845 43.4313 43.4315C48.5843 38.2785 55.4043 35.1294 62.6686 34.5488ZM137.069 87.0688C138.89 85.1828 139.898 82.6568 139.875 80.0348C139.853 77.4129 138.801 74.9047 136.947 73.0507C135.093 71.1966 132.585 70.1449 129.963 70.1221C127.341 70.0993 124.815 71.1073 122.929 72.9288L89.9986 105.859L77.0686 92.9288C75.1826 91.1073 72.6565 90.0993 70.0346 90.1221C67.4126 90.1449 64.9045 91.1966 63.0504 93.0507C61.1963 94.9047 60.1446 97.4129 60.1218 100.035C60.0991 102.657 61.107 105.183 62.9286 107.069L82.9286 127.069C84.8039 128.944 87.347 129.997 89.9986 129.997C92.6502 129.997 95.1933 128.944 97.0686 127.069L137.069 87.0688Z" fill="#E5E7EB"/>
</svg>
