<svg width="200" height="200" viewBox="0 0 200 200" fill="none" xmlns="http://www.w3.org/2000/svg">
<g id="favourite">
<path id="Vector" d="M35.9837 52.6501C32.5014 56.1323 29.7391 60.2663 27.8546 64.816C25.97 69.3657 25 74.2421 25 79.1667C25 84.0913 25.97 88.9677 27.8546 93.5175C29.7391 98.0672 32.5014 102.201 35.9837 105.683L100 169.7L164.017 105.683C171.05 98.6507 175.001 89.1124 175.001 79.1667C175.001 69.2211 171.05 59.6827 164.017 52.6501C156.984 45.6174 147.446 41.6665 137.5 41.6665C127.555 41.6665 118.016 45.6174 110.984 52.6501L100 63.6334L89.017 52.6501C85.5348 49.1678 81.4008 46.4056 76.8511 44.521C72.3013 42.6364 67.4249 41.6664 62.5003 41.6664C57.5757 41.6664 52.6993 42.6364 48.1496 44.521C43.5998 46.4056 39.4659 49.1678 35.9837 52.6501Z" fill="#E5E7EB"/>
</g>
</svg>
